G75*
G70*
%OFA0B0*%
%FSLAX24Y24*%
%IPPOS*%
%LPD*%
%AMOC8*
5,1,8,0,0,1.08239X$1,22.5*
%
%ADD10C,0.0827*%
%ADD11C,0.0554*%
%ADD12OC8,0.0554*%
%ADD13C,0.1266*%
%ADD14C,0.0650*%
%ADD15R,0.0945X0.0945*%
%ADD16C,0.0945*%
%ADD17C,0.0315*%
%ADD18C,0.1181*%
%ADD19C,0.0160*%
%ADD20C,0.1660*%
D10*
X003767Y009180D02*
X004593Y009180D01*
X006717Y009180D02*
X007543Y009180D01*
X011267Y009180D02*
X012093Y009180D01*
X014217Y009180D02*
X015043Y009180D01*
X018767Y009180D02*
X019593Y009180D01*
X021717Y009180D02*
X022543Y009180D01*
X026267Y009180D02*
X027093Y009180D01*
X029217Y009180D02*
X030043Y009180D01*
X030043Y015090D02*
X029217Y015090D01*
X027093Y015090D02*
X026267Y015090D01*
X026267Y017050D02*
X027093Y017050D01*
X029217Y017050D02*
X030043Y017050D01*
X030043Y019020D02*
X029217Y019020D01*
X027093Y019020D02*
X026267Y019020D01*
X022543Y019020D02*
X021717Y019020D01*
X019593Y019020D02*
X018767Y019020D01*
X018767Y017050D02*
X019593Y017050D01*
X021717Y017050D02*
X022543Y017050D01*
X022543Y015090D02*
X021717Y015090D01*
X019593Y015090D02*
X018767Y015090D01*
X015043Y015090D02*
X014217Y015090D01*
X012093Y015090D02*
X011267Y015090D01*
X011267Y017050D02*
X012093Y017050D01*
X014217Y017050D02*
X015043Y017050D01*
X015043Y019020D02*
X014217Y019020D01*
X012093Y019020D02*
X011267Y019020D01*
X007543Y019020D02*
X006717Y019020D01*
X004593Y019020D02*
X003767Y019020D01*
X003767Y017050D02*
X004593Y017050D01*
X006717Y017050D02*
X007543Y017050D01*
X007543Y015090D02*
X006717Y015090D01*
X004593Y015090D02*
X003767Y015090D01*
D11*
X031403Y014180D02*
X031957Y014180D01*
X034403Y014180D02*
X034957Y014180D01*
X034957Y017680D02*
X034403Y017680D01*
X031957Y017680D02*
X031403Y017680D01*
X031403Y010680D02*
X031957Y010680D01*
X034403Y010680D02*
X034957Y010680D01*
X034957Y007180D02*
X034403Y007180D01*
X031957Y007180D02*
X031403Y007180D01*
D12*
X031680Y009180D03*
X033680Y009180D03*
X033680Y012680D03*
X031680Y012680D03*
X031680Y016180D03*
X033680Y016180D03*
X033680Y019680D03*
X031680Y019680D03*
D13*
X016680Y005180D03*
X013680Y003680D03*
X019680Y003680D03*
D14*
X036180Y009680D03*
X036180Y010680D03*
X036180Y011680D03*
X036180Y012680D03*
X036180Y013680D03*
X036180Y014680D03*
D15*
X029180Y022680D03*
X021680Y022680D03*
X014180Y022680D03*
X006680Y022680D03*
D16*
X004680Y022680D03*
X012180Y022680D03*
X019680Y022680D03*
X027180Y022680D03*
D17*
X031680Y017393D02*
X033392Y019105D01*
X033680Y019105D01*
X033680Y019680D01*
X034680Y017680D02*
X034680Y017105D01*
X036180Y015605D01*
X036180Y014680D01*
X036180Y012680D02*
X034957Y012680D01*
X032878Y014758D01*
X031102Y014758D01*
X027775Y011431D01*
X027775Y009180D01*
X026680Y009180D01*
X027739Y008469D02*
X020986Y008469D01*
X020275Y009180D01*
X019180Y009180D01*
X027739Y008469D02*
X028535Y009265D01*
X028535Y010460D01*
X031680Y013605D01*
X031680Y014180D01*
X031102Y014758D02*
X031102Y016527D01*
X031680Y017105D01*
X031680Y017393D01*
X031680Y017680D01*
X031680Y012680D02*
X031680Y012105D01*
X030839Y011264D01*
X030839Y010448D01*
X031416Y009871D01*
X030725Y009180D01*
X029630Y009180D01*
X031416Y009871D02*
X031531Y009755D01*
X031680Y009755D01*
X031680Y009586D01*
X031680Y009180D01*
X031680Y009586D02*
X031851Y009757D01*
X034314Y009757D01*
X034662Y010105D01*
X034680Y010105D01*
X034680Y010680D01*
X034314Y009757D02*
X034314Y008121D01*
X034680Y007755D01*
X034680Y007180D01*
X033680Y009180D02*
X033105Y009180D01*
X031680Y007755D01*
X031680Y007180D01*
D18*
X019180Y015090D02*
X016966Y015090D01*
X016680Y014804D01*
X016680Y005180D01*
X013680Y003680D02*
X008894Y008466D01*
X008894Y015090D01*
X007130Y015090D01*
X009916Y017050D02*
X009916Y020416D01*
X012180Y022680D01*
X017416Y020416D02*
X019680Y022680D01*
X017416Y020416D02*
X017416Y017050D01*
X019180Y017050D01*
X016680Y014804D02*
X016394Y015090D01*
X014630Y015090D01*
X011680Y017050D02*
X009916Y017050D01*
X004180Y017050D02*
X002416Y017050D01*
X002416Y019598D01*
X004680Y021863D01*
X004680Y022680D01*
X024916Y020416D02*
X024916Y017050D01*
X026680Y017050D01*
X024916Y020416D02*
X027180Y022680D01*
D19*
X000660Y023696D02*
X000660Y000660D01*
X001356Y000660D01*
X001137Y000880D01*
X000965Y001177D01*
X000876Y001508D01*
X000876Y001852D01*
X000965Y002183D01*
X001137Y002480D01*
X001380Y002723D01*
X001677Y002895D01*
X002008Y002984D01*
X002352Y002984D01*
X002683Y002895D01*
X002980Y002723D01*
X003223Y002480D01*
X003395Y002183D01*
X003484Y001852D01*
X003484Y001508D01*
X003395Y001177D01*
X003223Y000880D01*
X003004Y000660D01*
X035356Y000660D01*
X035137Y000880D01*
X034965Y001177D01*
X034876Y001508D01*
X034876Y001852D01*
X034965Y002183D01*
X035137Y002480D01*
X035380Y002723D01*
X035677Y002895D01*
X036008Y002984D01*
X036352Y002984D01*
X036683Y002895D01*
X036980Y002723D01*
X037223Y002480D01*
X037395Y002183D01*
X037484Y001852D01*
X037484Y001508D01*
X037395Y001177D01*
X037223Y000880D01*
X037004Y000660D01*
X037570Y000660D01*
X037570Y023696D01*
X037008Y023696D01*
X037223Y023480D01*
X037395Y023183D01*
X037484Y022852D01*
X037484Y022508D01*
X037395Y022177D01*
X037223Y021880D01*
X036980Y021637D01*
X036683Y021465D01*
X036352Y021376D01*
X036008Y021376D01*
X035677Y021465D01*
X035380Y021637D01*
X035137Y021880D01*
X034965Y022177D01*
X034876Y022508D01*
X034876Y022852D01*
X034965Y023183D01*
X035137Y023480D01*
X035352Y023696D01*
X027500Y023696D01*
X027591Y023672D01*
X027833Y023532D01*
X028032Y023333D01*
X028172Y023091D01*
X028244Y022820D01*
X028244Y022540D01*
X028172Y022269D01*
X028032Y022027D01*
X025980Y019975D01*
X025980Y019861D01*
X026090Y019907D01*
X027270Y019907D01*
X027596Y019772D01*
X027845Y019522D01*
X027980Y019196D01*
X027980Y018844D01*
X027845Y018518D01*
X027596Y018268D01*
X027270Y018133D01*
X026090Y018133D01*
X025980Y018179D01*
X025980Y018114D01*
X026820Y018114D01*
X027091Y018042D01*
X027278Y017934D01*
X027596Y017802D01*
X027845Y017552D01*
X027980Y017226D01*
X027980Y016874D01*
X027845Y016548D01*
X027596Y016298D01*
X027278Y016166D01*
X027091Y016058D01*
X026820Y015986D01*
X024776Y015986D01*
X024505Y016058D01*
X024262Y016198D01*
X024064Y016397D01*
X023924Y016639D01*
X023851Y016910D01*
X023851Y020556D01*
X023924Y020826D01*
X024064Y021069D01*
X026527Y023532D01*
X026769Y023672D01*
X026860Y023696D01*
X020000Y023696D01*
X020091Y023672D01*
X020333Y023532D01*
X020532Y023333D01*
X020672Y023091D01*
X020744Y022820D01*
X020744Y022540D01*
X020672Y022269D01*
X020532Y022027D01*
X018480Y019975D01*
X018480Y019861D01*
X018590Y019907D01*
X019770Y019907D01*
X020096Y019772D01*
X020345Y019522D01*
X020480Y019196D01*
X020480Y018844D01*
X020345Y018518D01*
X020096Y018268D01*
X019770Y018133D01*
X018590Y018133D01*
X018480Y018179D01*
X018480Y018114D01*
X019320Y018114D01*
X019591Y018042D01*
X019778Y017934D01*
X020096Y017802D01*
X020345Y017552D01*
X020480Y017226D01*
X020480Y016874D01*
X020345Y016548D01*
X020096Y016298D01*
X019778Y016166D01*
X019611Y016070D01*
X019778Y015974D01*
X020096Y015842D01*
X020345Y015592D01*
X020480Y015266D01*
X020480Y014914D01*
X020345Y014588D01*
X020096Y014338D01*
X019778Y014206D01*
X019591Y014098D01*
X019320Y014026D01*
X017744Y014026D01*
X017744Y005484D01*
X017787Y005326D01*
X017787Y005034D01*
X017711Y004753D01*
X017566Y004500D01*
X017360Y004294D01*
X017107Y004149D01*
X016826Y004073D01*
X016534Y004073D01*
X016253Y004149D01*
X016000Y004294D01*
X015794Y004500D01*
X015649Y004753D01*
X015573Y005034D01*
X015573Y005326D01*
X015616Y005484D01*
X015616Y008498D01*
X015546Y008428D01*
X015220Y008293D01*
X014040Y008293D01*
X013714Y008428D01*
X013465Y008678D01*
X013330Y009004D01*
X013330Y009356D01*
X013465Y009682D01*
X013714Y009932D01*
X014040Y010067D01*
X015220Y010067D01*
X015546Y009932D01*
X015616Y009862D01*
X015616Y014026D01*
X014490Y014026D01*
X014219Y014098D01*
X014032Y014206D01*
X013714Y014338D01*
X013465Y014588D01*
X013330Y014914D01*
X013330Y015266D01*
X013465Y015592D01*
X013714Y015842D01*
X014032Y015974D01*
X014219Y016082D01*
X014490Y016154D01*
X016534Y016154D01*
X016680Y016115D01*
X016826Y016154D01*
X016839Y016154D01*
X016762Y016198D01*
X016564Y016397D01*
X016424Y016639D01*
X016351Y016910D01*
X016351Y020556D01*
X016424Y020826D01*
X016564Y021069D01*
X019027Y023532D01*
X019269Y023672D01*
X019360Y023696D01*
X012500Y023696D01*
X012591Y023672D01*
X012833Y023532D01*
X013032Y023333D01*
X013172Y023091D01*
X013244Y022820D01*
X013244Y022540D01*
X013172Y022269D01*
X013032Y022027D01*
X010980Y019975D01*
X010980Y019861D01*
X011090Y019907D01*
X012270Y019907D01*
X012596Y019772D01*
X012845Y019522D01*
X012980Y019196D01*
X012980Y018844D01*
X012845Y018518D01*
X012596Y018268D01*
X012270Y018133D01*
X011090Y018133D01*
X010980Y018179D01*
X010980Y018114D01*
X011820Y018114D01*
X012091Y018042D01*
X012278Y017934D01*
X012596Y017802D01*
X012845Y017552D01*
X012980Y017226D01*
X012980Y016874D01*
X012845Y016548D01*
X012596Y016298D01*
X012278Y016166D01*
X012091Y016058D01*
X011820Y015986D01*
X009776Y015986D01*
X009505Y016058D01*
X009262Y016198D01*
X009064Y016397D01*
X008924Y016639D01*
X008851Y016910D01*
X008851Y020556D01*
X008924Y020826D01*
X009064Y021069D01*
X011527Y023532D01*
X011769Y023672D01*
X011860Y023696D01*
X005000Y023696D01*
X005091Y023672D01*
X005333Y023532D01*
X005532Y023333D01*
X005672Y023091D01*
X005744Y022820D01*
X005744Y021723D01*
X005672Y021452D01*
X005532Y021209D01*
X005333Y021011D01*
X004230Y019907D01*
X004770Y019907D01*
X005096Y019772D01*
X005345Y019522D01*
X005480Y019196D01*
X005480Y018844D01*
X005345Y018518D01*
X005096Y018268D01*
X004770Y018133D01*
X003590Y018133D01*
X003480Y018179D01*
X003480Y018114D01*
X004320Y018114D01*
X004591Y018042D01*
X004778Y017934D01*
X005096Y017802D01*
X005345Y017552D01*
X005480Y017226D01*
X005480Y016874D01*
X005345Y016548D01*
X005096Y016298D01*
X004778Y016166D01*
X004591Y016058D01*
X004320Y015986D01*
X002276Y015986D01*
X002005Y016058D01*
X001762Y016198D01*
X001564Y016397D01*
X001424Y016639D01*
X001351Y016910D01*
X001351Y019738D01*
X001424Y020009D01*
X001564Y020252D01*
X002906Y021594D01*
X002683Y021465D01*
X002352Y021376D01*
X002008Y021376D01*
X001677Y021465D01*
X001380Y021637D01*
X001137Y021880D01*
X000965Y022177D01*
X000876Y022508D01*
X000876Y022852D01*
X000965Y023183D01*
X001137Y023480D01*
X001352Y023696D01*
X000660Y023696D01*
X000660Y023638D02*
X001294Y023638D01*
X001136Y023480D02*
X000660Y023480D01*
X000660Y023321D02*
X001045Y023321D01*
X000960Y023163D02*
X000660Y023163D01*
X000660Y023004D02*
X000917Y023004D01*
X000876Y022846D02*
X000660Y022846D01*
X000660Y022687D02*
X000876Y022687D01*
X000876Y022529D02*
X000660Y022529D01*
X000660Y022370D02*
X000913Y022370D01*
X000956Y022212D02*
X000660Y022212D01*
X000660Y022053D02*
X001037Y022053D01*
X001128Y021895D02*
X000660Y021895D01*
X000660Y021736D02*
X001280Y021736D01*
X001482Y021578D02*
X000660Y021578D01*
X000660Y021419D02*
X001849Y021419D01*
X002256Y020944D02*
X000660Y020944D01*
X000660Y021102D02*
X002414Y021102D01*
X002573Y021261D02*
X000660Y021261D01*
X000660Y020785D02*
X002097Y020785D01*
X001939Y020627D02*
X000660Y020627D01*
X000660Y020468D02*
X001780Y020468D01*
X001622Y020310D02*
X000660Y020310D01*
X000660Y020151D02*
X001506Y020151D01*
X001420Y019993D02*
X000660Y019993D01*
X000660Y019834D02*
X001377Y019834D01*
X001351Y019676D02*
X000660Y019676D01*
X000660Y019517D02*
X001351Y019517D01*
X001351Y019359D02*
X000660Y019359D01*
X000660Y019200D02*
X001351Y019200D01*
X001351Y019042D02*
X000660Y019042D01*
X000660Y018883D02*
X001351Y018883D01*
X001351Y018725D02*
X000660Y018725D01*
X000660Y018566D02*
X001351Y018566D01*
X001351Y018408D02*
X000660Y018408D01*
X000660Y018249D02*
X001351Y018249D01*
X001351Y018091D02*
X000660Y018091D01*
X000660Y017932D02*
X001351Y017932D01*
X001351Y017774D02*
X000660Y017774D01*
X000660Y017615D02*
X001351Y017615D01*
X001351Y017457D02*
X000660Y017457D01*
X000660Y017298D02*
X001351Y017298D01*
X001351Y017140D02*
X000660Y017140D01*
X000660Y016981D02*
X001351Y016981D01*
X001375Y016823D02*
X000660Y016823D01*
X000660Y016664D02*
X001417Y016664D01*
X001501Y016506D02*
X000660Y016506D01*
X000660Y016347D02*
X001614Y016347D01*
X001779Y016189D02*
X000660Y016189D01*
X000660Y016030D02*
X002110Y016030D01*
X003015Y015592D02*
X002880Y015266D01*
X002880Y014914D01*
X003015Y014588D01*
X003264Y014338D01*
X003590Y014203D01*
X004770Y014203D01*
X005096Y014338D01*
X005345Y014588D01*
X005480Y014914D01*
X005480Y015266D01*
X005345Y015592D01*
X005096Y015842D01*
X004770Y015977D01*
X003590Y015977D01*
X003264Y015842D01*
X003015Y015592D01*
X002999Y015555D02*
X000660Y015555D01*
X000660Y015713D02*
X003135Y015713D01*
X003335Y015872D02*
X000660Y015872D01*
X000660Y015396D02*
X002933Y015396D01*
X002880Y015238D02*
X000660Y015238D01*
X000660Y015079D02*
X002880Y015079D01*
X002880Y014921D02*
X000660Y014921D01*
X000660Y014762D02*
X002942Y014762D01*
X003008Y014604D02*
X000660Y014604D01*
X000660Y014445D02*
X003157Y014445D01*
X003388Y014287D02*
X000660Y014287D01*
X000660Y014128D02*
X006668Y014128D01*
X006719Y014098D02*
X006990Y014026D01*
X007830Y014026D01*
X007830Y010021D01*
X007720Y010067D01*
X006540Y010067D01*
X006214Y009932D01*
X005965Y009682D01*
X005830Y009356D01*
X005830Y009004D01*
X005965Y008678D01*
X006214Y008428D01*
X006540Y008293D01*
X007720Y008293D01*
X007830Y008339D01*
X007830Y008326D01*
X007903Y008055D01*
X008043Y007812D01*
X008241Y007614D01*
X012712Y003143D01*
X012794Y003000D01*
X013000Y002794D01*
X013253Y002649D01*
X013534Y002573D01*
X013826Y002573D01*
X014107Y002649D01*
X014360Y002794D01*
X014566Y003000D01*
X014711Y003253D01*
X014787Y003534D01*
X014787Y003826D01*
X014711Y004107D01*
X014566Y004360D01*
X014360Y004566D01*
X014217Y004648D01*
X009959Y008907D01*
X009959Y015230D01*
X009886Y015501D01*
X009746Y015743D01*
X009548Y015942D01*
X009305Y016082D01*
X009034Y016154D01*
X006990Y016154D01*
X006719Y016082D01*
X006532Y015974D01*
X006214Y015842D01*
X005965Y015592D01*
X005830Y015266D01*
X005830Y014914D01*
X005965Y014588D01*
X006214Y014338D01*
X006532Y014206D01*
X006719Y014098D01*
X006338Y014287D02*
X004972Y014287D01*
X005203Y014445D02*
X006107Y014445D01*
X005958Y014604D02*
X005352Y014604D01*
X005418Y014762D02*
X005892Y014762D01*
X005830Y014921D02*
X005480Y014921D01*
X005480Y015079D02*
X005830Y015079D01*
X005830Y015238D02*
X005480Y015238D01*
X005427Y015396D02*
X005883Y015396D01*
X005949Y015555D02*
X005361Y015555D01*
X005225Y015713D02*
X006085Y015713D01*
X006285Y015872D02*
X005025Y015872D01*
X004832Y016189D02*
X006478Y016189D01*
X006540Y016163D02*
X006214Y016298D01*
X005965Y016548D01*
X005830Y016874D01*
X005830Y017226D01*
X005965Y017552D01*
X006214Y017802D01*
X006540Y017937D01*
X007720Y017937D01*
X008046Y017802D01*
X008295Y017552D01*
X008430Y017226D01*
X008430Y016874D01*
X008295Y016548D01*
X008046Y016298D01*
X007720Y016163D01*
X006540Y016163D01*
X006630Y016030D02*
X004485Y016030D01*
X005145Y016347D02*
X006165Y016347D01*
X006007Y016506D02*
X005303Y016506D01*
X005394Y016664D02*
X005916Y016664D01*
X005851Y016823D02*
X005459Y016823D01*
X005480Y016981D02*
X005830Y016981D01*
X005830Y017140D02*
X005480Y017140D01*
X005451Y017298D02*
X005859Y017298D01*
X005925Y017457D02*
X005385Y017457D01*
X005283Y017615D02*
X006027Y017615D01*
X006186Y017774D02*
X005124Y017774D01*
X004782Y017932D02*
X006528Y017932D01*
X006540Y018133D02*
X006214Y018268D01*
X005965Y018518D01*
X005830Y018844D01*
X005830Y019196D01*
X005965Y019522D01*
X006214Y019772D01*
X006540Y019907D01*
X007720Y019907D01*
X008046Y019772D01*
X008295Y019522D01*
X008430Y019196D01*
X008430Y018844D01*
X008295Y018518D01*
X008046Y018268D01*
X007720Y018133D01*
X006540Y018133D01*
X006260Y018249D02*
X005050Y018249D01*
X005235Y018408D02*
X006075Y018408D01*
X005944Y018566D02*
X005366Y018566D01*
X005431Y018725D02*
X005879Y018725D01*
X005830Y018883D02*
X005480Y018883D01*
X005480Y019042D02*
X005830Y019042D01*
X005831Y019200D02*
X005479Y019200D01*
X005413Y019359D02*
X005897Y019359D01*
X005962Y019517D02*
X005348Y019517D01*
X005192Y019676D02*
X006118Y019676D01*
X006364Y019834D02*
X004946Y019834D01*
X004473Y020151D02*
X008851Y020151D01*
X008851Y019993D02*
X004315Y019993D01*
X004632Y020310D02*
X008851Y020310D01*
X008851Y020468D02*
X004790Y020468D01*
X004949Y020627D02*
X008870Y020627D01*
X008913Y020785D02*
X005107Y020785D01*
X005266Y020944D02*
X008992Y020944D01*
X009097Y021102D02*
X005424Y021102D01*
X005561Y021261D02*
X009255Y021261D01*
X009414Y021419D02*
X005653Y021419D01*
X005705Y021578D02*
X009572Y021578D01*
X009731Y021736D02*
X005744Y021736D01*
X005744Y021895D02*
X009889Y021895D01*
X010048Y022053D02*
X005744Y022053D01*
X005744Y022212D02*
X010206Y022212D01*
X010365Y022370D02*
X005744Y022370D01*
X005744Y022529D02*
X010523Y022529D01*
X010682Y022687D02*
X005744Y022687D01*
X005737Y022846D02*
X010840Y022846D01*
X010999Y023004D02*
X005695Y023004D01*
X005630Y023163D02*
X011157Y023163D01*
X011316Y023321D02*
X005539Y023321D01*
X005386Y023480D02*
X011474Y023480D01*
X011711Y023638D02*
X005149Y023638D01*
X002890Y021578D02*
X002878Y021578D01*
X002731Y021419D02*
X002511Y021419D01*
X004409Y018091D02*
X008851Y018091D01*
X008851Y018249D02*
X008000Y018249D01*
X008185Y018408D02*
X008851Y018408D01*
X008851Y018566D02*
X008316Y018566D01*
X008381Y018725D02*
X008851Y018725D01*
X008851Y018883D02*
X008430Y018883D01*
X008430Y019042D02*
X008851Y019042D01*
X008851Y019200D02*
X008429Y019200D01*
X008363Y019359D02*
X008851Y019359D01*
X008851Y019517D02*
X008298Y019517D01*
X008142Y019676D02*
X008851Y019676D01*
X008851Y019834D02*
X007896Y019834D01*
X007732Y017932D02*
X008851Y017932D01*
X008851Y017774D02*
X008074Y017774D01*
X008233Y017615D02*
X008851Y017615D01*
X008851Y017457D02*
X008335Y017457D01*
X008401Y017298D02*
X008851Y017298D01*
X008851Y017140D02*
X008430Y017140D01*
X008430Y016981D02*
X008851Y016981D01*
X008875Y016823D02*
X008409Y016823D01*
X008344Y016664D02*
X008917Y016664D01*
X009001Y016506D02*
X008253Y016506D01*
X008095Y016347D02*
X009114Y016347D01*
X009279Y016189D02*
X007782Y016189D01*
X009395Y016030D02*
X009610Y016030D01*
X009618Y015872D02*
X010835Y015872D01*
X010764Y015842D02*
X010515Y015592D01*
X010380Y015266D01*
X010380Y014914D01*
X010515Y014588D01*
X010764Y014338D01*
X011090Y014203D01*
X012270Y014203D01*
X012596Y014338D01*
X012845Y014588D01*
X012980Y014914D01*
X012980Y015266D01*
X012845Y015592D01*
X012596Y015842D01*
X012270Y015977D01*
X011090Y015977D01*
X010764Y015842D01*
X010635Y015713D02*
X009763Y015713D01*
X009855Y015555D02*
X010499Y015555D01*
X010433Y015396D02*
X009914Y015396D01*
X009957Y015238D02*
X010380Y015238D01*
X010380Y015079D02*
X009959Y015079D01*
X009959Y014921D02*
X010380Y014921D01*
X010442Y014762D02*
X009959Y014762D01*
X009959Y014604D02*
X010508Y014604D01*
X010657Y014445D02*
X009959Y014445D01*
X009959Y014287D02*
X010888Y014287D01*
X009959Y014128D02*
X014168Y014128D01*
X013838Y014287D02*
X012472Y014287D01*
X012703Y014445D02*
X013607Y014445D01*
X013458Y014604D02*
X012852Y014604D01*
X012918Y014762D02*
X013392Y014762D01*
X013330Y014921D02*
X012980Y014921D01*
X012980Y015079D02*
X013330Y015079D01*
X013330Y015238D02*
X012980Y015238D01*
X012927Y015396D02*
X013383Y015396D01*
X013449Y015555D02*
X012861Y015555D01*
X012725Y015713D02*
X013585Y015713D01*
X013785Y015872D02*
X012525Y015872D01*
X012332Y016189D02*
X013978Y016189D01*
X014040Y016163D02*
X013714Y016298D01*
X013465Y016548D01*
X013330Y016874D01*
X013330Y017226D01*
X013465Y017552D01*
X013714Y017802D01*
X014040Y017937D01*
X015220Y017937D01*
X015546Y017802D01*
X015795Y017552D01*
X015930Y017226D01*
X015930Y016874D01*
X015795Y016548D01*
X015546Y016298D01*
X015220Y016163D01*
X014040Y016163D01*
X014130Y016030D02*
X011985Y016030D01*
X012645Y016347D02*
X013665Y016347D01*
X013507Y016506D02*
X012803Y016506D01*
X012894Y016664D02*
X013416Y016664D01*
X013351Y016823D02*
X012959Y016823D01*
X012980Y016981D02*
X013330Y016981D01*
X013330Y017140D02*
X012980Y017140D01*
X012951Y017298D02*
X013359Y017298D01*
X013425Y017457D02*
X012885Y017457D01*
X012783Y017615D02*
X013527Y017615D01*
X013686Y017774D02*
X012624Y017774D01*
X012282Y017932D02*
X014028Y017932D01*
X014040Y018133D02*
X013714Y018268D01*
X013465Y018518D01*
X013330Y018844D01*
X013330Y019196D01*
X013465Y019522D01*
X013714Y019772D01*
X014040Y019907D01*
X015220Y019907D01*
X015546Y019772D01*
X015795Y019522D01*
X015930Y019196D01*
X015930Y018844D01*
X015795Y018518D01*
X015546Y018268D01*
X015220Y018133D01*
X014040Y018133D01*
X013760Y018249D02*
X012550Y018249D01*
X012735Y018408D02*
X013575Y018408D01*
X013444Y018566D02*
X012866Y018566D01*
X012931Y018725D02*
X013379Y018725D01*
X013330Y018883D02*
X012980Y018883D01*
X012980Y019042D02*
X013330Y019042D01*
X013331Y019200D02*
X012979Y019200D01*
X012913Y019359D02*
X013397Y019359D01*
X013462Y019517D02*
X012848Y019517D01*
X012692Y019676D02*
X013618Y019676D01*
X013864Y019834D02*
X012446Y019834D01*
X011632Y020627D02*
X016370Y020627D01*
X016351Y020468D02*
X011473Y020468D01*
X011315Y020310D02*
X016351Y020310D01*
X016351Y020151D02*
X011156Y020151D01*
X010998Y019993D02*
X016351Y019993D01*
X016351Y019834D02*
X015396Y019834D01*
X015642Y019676D02*
X016351Y019676D01*
X016351Y019517D02*
X015798Y019517D01*
X015863Y019359D02*
X016351Y019359D01*
X016351Y019200D02*
X015929Y019200D01*
X015930Y019042D02*
X016351Y019042D01*
X016351Y018883D02*
X015930Y018883D01*
X015881Y018725D02*
X016351Y018725D01*
X016351Y018566D02*
X015816Y018566D01*
X015685Y018408D02*
X016351Y018408D01*
X016351Y018249D02*
X015500Y018249D01*
X015232Y017932D02*
X016351Y017932D01*
X016351Y017774D02*
X015574Y017774D01*
X015733Y017615D02*
X016351Y017615D01*
X016351Y017457D02*
X015835Y017457D01*
X015901Y017298D02*
X016351Y017298D01*
X016351Y017140D02*
X015930Y017140D01*
X015930Y016981D02*
X016351Y016981D01*
X016375Y016823D02*
X015909Y016823D01*
X015844Y016664D02*
X016417Y016664D01*
X016501Y016506D02*
X015753Y016506D01*
X015595Y016347D02*
X016614Y016347D01*
X016779Y016189D02*
X015282Y016189D01*
X016351Y018091D02*
X011909Y018091D01*
X011790Y020785D02*
X016413Y020785D01*
X016492Y020944D02*
X011949Y020944D01*
X012107Y021102D02*
X016597Y021102D01*
X016755Y021261D02*
X012266Y021261D01*
X012424Y021419D02*
X016914Y021419D01*
X017072Y021578D02*
X012583Y021578D01*
X012741Y021736D02*
X017231Y021736D01*
X017389Y021895D02*
X012900Y021895D01*
X013047Y022053D02*
X017548Y022053D01*
X017706Y022212D02*
X013138Y022212D01*
X013199Y022370D02*
X017865Y022370D01*
X018023Y022529D02*
X013241Y022529D01*
X013244Y022687D02*
X018182Y022687D01*
X018340Y022846D02*
X013237Y022846D01*
X013195Y023004D02*
X018499Y023004D01*
X018657Y023163D02*
X013130Y023163D01*
X013039Y023321D02*
X018816Y023321D01*
X018974Y023480D02*
X012886Y023480D01*
X012649Y023638D02*
X019211Y023638D01*
X020149Y023638D02*
X026711Y023638D01*
X026474Y023480D02*
X020386Y023480D01*
X020539Y023321D02*
X026316Y023321D01*
X026157Y023163D02*
X020630Y023163D01*
X020695Y023004D02*
X025999Y023004D01*
X025840Y022846D02*
X020737Y022846D01*
X020744Y022687D02*
X025682Y022687D01*
X025523Y022529D02*
X020741Y022529D01*
X020699Y022370D02*
X025365Y022370D01*
X025206Y022212D02*
X020638Y022212D01*
X020547Y022053D02*
X025048Y022053D01*
X024889Y021895D02*
X020400Y021895D01*
X020241Y021736D02*
X024731Y021736D01*
X024572Y021578D02*
X020083Y021578D01*
X019924Y021419D02*
X024414Y021419D01*
X024255Y021261D02*
X019766Y021261D01*
X019607Y021102D02*
X024097Y021102D01*
X023992Y020944D02*
X019449Y020944D01*
X019290Y020785D02*
X023913Y020785D01*
X023870Y020627D02*
X019132Y020627D01*
X018973Y020468D02*
X023851Y020468D01*
X023851Y020310D02*
X018815Y020310D01*
X018656Y020151D02*
X023851Y020151D01*
X023851Y019993D02*
X018498Y019993D01*
X019946Y019834D02*
X021364Y019834D01*
X021214Y019772D02*
X020965Y019522D01*
X020830Y019196D01*
X020830Y018844D01*
X020965Y018518D01*
X021214Y018268D01*
X021540Y018133D01*
X022720Y018133D01*
X023046Y018268D01*
X023295Y018518D01*
X023430Y018844D01*
X023430Y019196D01*
X023295Y019522D01*
X023046Y019772D01*
X022720Y019907D01*
X021540Y019907D01*
X021214Y019772D01*
X021118Y019676D02*
X020192Y019676D01*
X020348Y019517D02*
X020962Y019517D01*
X020897Y019359D02*
X020413Y019359D01*
X020479Y019200D02*
X020831Y019200D01*
X020830Y019042D02*
X020480Y019042D01*
X020480Y018883D02*
X020830Y018883D01*
X020879Y018725D02*
X020431Y018725D01*
X020366Y018566D02*
X020944Y018566D01*
X021075Y018408D02*
X020235Y018408D01*
X020050Y018249D02*
X021260Y018249D01*
X021528Y017932D02*
X019782Y017932D01*
X020124Y017774D02*
X021186Y017774D01*
X021214Y017802D02*
X020965Y017552D01*
X020830Y017226D01*
X020830Y016874D01*
X020965Y016548D01*
X021214Y016298D01*
X021540Y016163D01*
X022720Y016163D01*
X023046Y016298D01*
X023295Y016548D01*
X023430Y016874D01*
X023430Y017226D01*
X023295Y017552D01*
X023046Y017802D01*
X022720Y017937D01*
X021540Y017937D01*
X021214Y017802D01*
X021027Y017615D02*
X020283Y017615D01*
X020385Y017457D02*
X020925Y017457D01*
X020859Y017298D02*
X020451Y017298D01*
X020480Y017140D02*
X020830Y017140D01*
X020830Y016981D02*
X020480Y016981D01*
X020459Y016823D02*
X020851Y016823D01*
X020916Y016664D02*
X020394Y016664D01*
X020303Y016506D02*
X021007Y016506D01*
X021165Y016347D02*
X020145Y016347D01*
X019832Y016189D02*
X021478Y016189D01*
X021540Y015977D02*
X021214Y015842D01*
X020965Y015592D01*
X020830Y015266D01*
X020830Y014914D01*
X020965Y014588D01*
X021214Y014338D01*
X021540Y014203D01*
X022720Y014203D01*
X023046Y014338D01*
X023295Y014588D01*
X023430Y014914D01*
X023430Y015266D01*
X023295Y015592D01*
X023046Y015842D01*
X022720Y015977D01*
X021540Y015977D01*
X021285Y015872D02*
X020025Y015872D01*
X020225Y015713D02*
X021085Y015713D01*
X020949Y015555D02*
X020361Y015555D01*
X020427Y015396D02*
X020883Y015396D01*
X020830Y015238D02*
X020480Y015238D01*
X020480Y015079D02*
X020830Y015079D01*
X020830Y014921D02*
X020480Y014921D01*
X020418Y014762D02*
X020892Y014762D01*
X020958Y014604D02*
X020352Y014604D01*
X020203Y014445D02*
X021107Y014445D01*
X021338Y014287D02*
X019972Y014287D01*
X019642Y014128D02*
X029579Y014128D01*
X029654Y014203D02*
X027240Y011789D01*
X027144Y011557D01*
X027144Y010067D01*
X026090Y010067D01*
X025764Y009932D01*
X025515Y009682D01*
X025380Y009356D01*
X025380Y009100D01*
X023430Y009100D01*
X023430Y009356D01*
X023295Y009682D01*
X023046Y009932D01*
X022720Y010067D01*
X021540Y010067D01*
X021214Y009932D01*
X020965Y009682D01*
X020877Y009471D01*
X020633Y009715D01*
X020401Y009811D01*
X020217Y009811D01*
X020096Y009932D01*
X019770Y010067D01*
X018590Y010067D01*
X018264Y009932D01*
X018015Y009682D01*
X017880Y009356D01*
X017880Y009004D01*
X018015Y008678D01*
X018264Y008428D01*
X018590Y008293D01*
X019770Y008293D01*
X020096Y008428D01*
X020115Y008447D01*
X020629Y007934D01*
X020861Y007837D01*
X027864Y007837D01*
X028096Y007934D01*
X028274Y008111D01*
X028652Y008490D01*
X028714Y008428D01*
X029040Y008293D01*
X030220Y008293D01*
X030546Y008428D01*
X030667Y008549D01*
X030851Y008549D01*
X031083Y008645D01*
X031118Y008680D01*
X031369Y008429D01*
X031462Y008429D01*
X031145Y008113D01*
X031049Y007881D01*
X031049Y007846D01*
X030978Y007817D01*
X030766Y007605D01*
X030652Y007329D01*
X030652Y007031D01*
X030766Y006755D01*
X030978Y006543D01*
X031253Y006429D01*
X032107Y006429D01*
X032382Y006543D01*
X032594Y006755D01*
X032708Y007031D01*
X032708Y007329D01*
X032594Y007605D01*
X032508Y007691D01*
X033308Y008490D01*
X033369Y008429D01*
X033683Y008429D01*
X033683Y007995D01*
X033779Y007763D01*
X033852Y007691D01*
X033766Y007605D01*
X033652Y007329D01*
X033652Y007031D01*
X033766Y006755D01*
X033978Y006543D01*
X034253Y006429D01*
X035107Y006429D01*
X035382Y006543D01*
X035594Y006755D01*
X035708Y007031D01*
X035708Y007329D01*
X035594Y007605D01*
X035382Y007817D01*
X035311Y007846D01*
X035311Y007881D01*
X035215Y008113D01*
X035038Y008290D01*
X035038Y008290D01*
X034945Y008382D01*
X034945Y009495D01*
X035008Y009557D01*
X035038Y009570D01*
X035215Y009747D01*
X035311Y009979D01*
X035311Y010014D01*
X035382Y010043D01*
X035535Y010196D01*
X035551Y010180D01*
X035503Y010132D01*
X035381Y009839D01*
X035381Y009521D01*
X035503Y009228D01*
X035728Y009003D01*
X036021Y008881D01*
X036339Y008881D01*
X036632Y009003D01*
X036857Y009228D01*
X036979Y009521D01*
X036979Y009839D01*
X036857Y010132D01*
X036809Y010180D01*
X036857Y010228D01*
X036979Y010521D01*
X036979Y010839D01*
X036857Y011132D01*
X036809Y011180D01*
X036857Y011228D01*
X036979Y011521D01*
X036979Y011839D01*
X036857Y012132D01*
X036809Y012180D01*
X036857Y012228D01*
X036979Y012521D01*
X036979Y012839D01*
X036857Y013132D01*
X036809Y013180D01*
X036857Y013228D01*
X036979Y013521D01*
X036979Y013839D01*
X036857Y014132D01*
X036809Y014180D01*
X036857Y014228D01*
X036979Y014521D01*
X036979Y014839D01*
X036857Y015132D01*
X036811Y015178D01*
X036811Y015731D01*
X036715Y015963D01*
X036538Y016140D01*
X035508Y017169D01*
X035594Y017255D01*
X035708Y017531D01*
X035708Y017829D01*
X035594Y018105D01*
X035382Y018317D01*
X035107Y018431D01*
X034253Y018431D01*
X033978Y018317D01*
X033766Y018105D01*
X033652Y017829D01*
X033652Y017531D01*
X033766Y017255D01*
X033978Y017043D01*
X034049Y017014D01*
X034049Y016979D01*
X034124Y016798D01*
X033991Y016931D01*
X033369Y016931D01*
X032929Y016491D01*
X032929Y015869D01*
X033369Y015429D01*
X033991Y015429D01*
X034431Y015869D01*
X034431Y016462D01*
X035549Y015344D01*
X035549Y015178D01*
X035503Y015132D01*
X035381Y014839D01*
X035381Y014817D01*
X035107Y014931D01*
X034253Y014931D01*
X033978Y014817D01*
X033845Y014684D01*
X033413Y015116D01*
X033236Y015294D01*
X033004Y015390D01*
X031734Y015390D01*
X031734Y015429D01*
X031991Y015429D01*
X032431Y015869D01*
X032431Y016491D01*
X032195Y016727D01*
X032215Y016747D01*
X032311Y016979D01*
X032311Y017014D01*
X032382Y017043D01*
X032594Y017255D01*
X032706Y017526D01*
X033654Y018474D01*
X033806Y018474D01*
X034038Y018570D01*
X034215Y018747D01*
X034311Y018979D01*
X034311Y019249D01*
X034431Y019369D01*
X034431Y019991D01*
X033991Y020431D01*
X033369Y020431D01*
X032929Y019991D01*
X032929Y019534D01*
X032857Y019463D01*
X031826Y018431D01*
X031253Y018431D01*
X030978Y018317D01*
X030766Y018105D01*
X030652Y017829D01*
X030652Y017696D01*
X030546Y017802D01*
X030220Y017937D01*
X029040Y017937D01*
X028714Y017802D01*
X028465Y017552D01*
X028330Y017226D01*
X028330Y016874D01*
X028465Y016548D01*
X028714Y016298D01*
X029040Y016163D01*
X030220Y016163D01*
X030471Y016267D01*
X030471Y015873D01*
X030220Y015977D01*
X029040Y015977D01*
X028714Y015842D01*
X028465Y015592D01*
X028330Y015266D01*
X028330Y014914D01*
X028465Y014588D01*
X028714Y014338D01*
X029040Y014203D01*
X029654Y014203D01*
X029421Y013970D02*
X017744Y013970D01*
X017744Y013811D02*
X029262Y013811D01*
X029104Y013653D02*
X017744Y013653D01*
X017744Y013494D02*
X028945Y013494D01*
X028787Y013336D02*
X017744Y013336D01*
X017744Y013177D02*
X028628Y013177D01*
X028470Y013019D02*
X017744Y013019D01*
X017744Y012860D02*
X028311Y012860D01*
X028153Y012702D02*
X017744Y012702D01*
X017744Y012543D02*
X027994Y012543D01*
X027836Y012385D02*
X017744Y012385D01*
X017744Y012226D02*
X027677Y012226D01*
X027519Y012068D02*
X017744Y012068D01*
X017744Y011909D02*
X027360Y011909D01*
X027224Y011751D02*
X017744Y011751D01*
X017744Y011592D02*
X027159Y011592D01*
X027144Y011434D02*
X017744Y011434D01*
X017744Y011275D02*
X027144Y011275D01*
X027144Y011117D02*
X017744Y011117D01*
X017744Y010958D02*
X027144Y010958D01*
X027144Y010800D02*
X017744Y010800D01*
X017744Y010641D02*
X027144Y010641D01*
X027144Y010483D02*
X017744Y010483D01*
X017744Y010324D02*
X027144Y010324D01*
X027144Y010166D02*
X017744Y010166D01*
X017744Y010007D02*
X018445Y010007D01*
X018181Y009849D02*
X017744Y009849D01*
X017744Y009690D02*
X018022Y009690D01*
X017952Y009532D02*
X017744Y009532D01*
X017744Y009373D02*
X017886Y009373D01*
X017880Y009215D02*
X017744Y009215D01*
X017744Y009056D02*
X017880Y009056D01*
X017923Y008898D02*
X017744Y008898D01*
X017744Y008739D02*
X017989Y008739D01*
X018112Y008581D02*
X017744Y008581D01*
X017744Y008422D02*
X018278Y008422D01*
X017744Y008264D02*
X020299Y008264D01*
X020140Y008422D02*
X020082Y008422D01*
X020457Y008105D02*
X017744Y008105D01*
X017744Y007947D02*
X020616Y007947D01*
X020816Y009532D02*
X020902Y009532D01*
X020972Y009690D02*
X020658Y009690D01*
X021131Y009849D02*
X020179Y009849D01*
X019915Y010007D02*
X021395Y010007D01*
X022865Y010007D02*
X025945Y010007D01*
X025681Y009849D02*
X023129Y009849D01*
X023288Y009690D02*
X025522Y009690D01*
X025452Y009532D02*
X023358Y009532D01*
X023424Y009373D02*
X025386Y009373D01*
X025380Y009215D02*
X023430Y009215D01*
X028109Y007947D02*
X031076Y007947D01*
X031142Y008105D02*
X028267Y008105D01*
X028426Y008264D02*
X031296Y008264D01*
X031454Y008422D02*
X030532Y008422D01*
X030927Y008581D02*
X031218Y008581D01*
X030949Y007788D02*
X017744Y007788D01*
X017744Y007630D02*
X030790Y007630D01*
X030711Y007471D02*
X017744Y007471D01*
X017744Y007313D02*
X030652Y007313D01*
X030652Y007154D02*
X017744Y007154D01*
X017744Y006996D02*
X030667Y006996D01*
X030732Y006837D02*
X017744Y006837D01*
X017744Y006679D02*
X030842Y006679D01*
X031034Y006520D02*
X017744Y006520D01*
X017744Y006362D02*
X037570Y006362D01*
X037570Y006520D02*
X035326Y006520D01*
X035518Y006679D02*
X037570Y006679D01*
X037570Y006837D02*
X035628Y006837D01*
X035693Y006996D02*
X037570Y006996D01*
X037570Y007154D02*
X035708Y007154D01*
X035708Y007313D02*
X037570Y007313D01*
X037570Y007471D02*
X035649Y007471D01*
X035570Y007630D02*
X037570Y007630D01*
X037570Y007788D02*
X035411Y007788D01*
X035284Y007947D02*
X037570Y007947D01*
X037570Y008105D02*
X035218Y008105D01*
X035064Y008264D02*
X037570Y008264D01*
X037570Y008422D02*
X034945Y008422D01*
X034945Y008581D02*
X037570Y008581D01*
X037570Y008739D02*
X034945Y008739D01*
X034945Y008898D02*
X035982Y008898D01*
X035675Y009056D02*
X034945Y009056D01*
X034945Y009215D02*
X035516Y009215D01*
X035443Y009373D02*
X034945Y009373D01*
X034982Y009532D02*
X035381Y009532D01*
X035381Y009690D02*
X035158Y009690D01*
X035257Y009849D02*
X035386Y009849D01*
X035451Y010007D02*
X035311Y010007D01*
X035505Y010166D02*
X035536Y010166D01*
X036824Y010166D02*
X037570Y010166D01*
X037570Y010324D02*
X036897Y010324D01*
X036962Y010483D02*
X037570Y010483D01*
X037570Y010641D02*
X036979Y010641D01*
X036979Y010800D02*
X037570Y010800D01*
X037570Y010958D02*
X036929Y010958D01*
X036863Y011117D02*
X037570Y011117D01*
X037570Y011275D02*
X036877Y011275D01*
X036942Y011434D02*
X037570Y011434D01*
X037570Y011592D02*
X036979Y011592D01*
X036979Y011751D02*
X037570Y011751D01*
X037570Y011909D02*
X036949Y011909D01*
X036884Y012068D02*
X037570Y012068D01*
X037570Y012226D02*
X036855Y012226D01*
X036922Y012385D02*
X037570Y012385D01*
X037570Y012543D02*
X036979Y012543D01*
X036979Y012702D02*
X037570Y012702D01*
X037570Y012860D02*
X036970Y012860D01*
X036904Y013019D02*
X037570Y013019D01*
X037570Y013177D02*
X036812Y013177D01*
X036902Y013336D02*
X037570Y013336D01*
X037570Y013494D02*
X036967Y013494D01*
X036979Y013653D02*
X037570Y013653D01*
X037570Y013811D02*
X036979Y013811D01*
X036924Y013970D02*
X037570Y013970D01*
X037570Y014128D02*
X036859Y014128D01*
X036881Y014287D02*
X037570Y014287D01*
X037570Y014445D02*
X036947Y014445D01*
X036979Y014604D02*
X037570Y014604D01*
X037570Y014762D02*
X036979Y014762D01*
X036945Y014921D02*
X037570Y014921D01*
X037570Y015079D02*
X036879Y015079D01*
X036811Y015238D02*
X037570Y015238D01*
X037570Y015396D02*
X036811Y015396D01*
X036811Y015555D02*
X037570Y015555D01*
X037570Y015713D02*
X036811Y015713D01*
X036753Y015872D02*
X037570Y015872D01*
X037570Y016030D02*
X036648Y016030D01*
X036489Y016189D02*
X037570Y016189D01*
X037570Y016347D02*
X036331Y016347D01*
X036172Y016506D02*
X037570Y016506D01*
X037570Y016664D02*
X036014Y016664D01*
X035855Y016823D02*
X037570Y016823D01*
X037570Y016981D02*
X035697Y016981D01*
X035538Y017140D02*
X037570Y017140D01*
X037570Y017298D02*
X035612Y017298D01*
X035677Y017457D02*
X037570Y017457D01*
X037570Y017615D02*
X035708Y017615D01*
X035708Y017774D02*
X037570Y017774D01*
X037570Y017932D02*
X035666Y017932D01*
X035600Y018091D02*
X037570Y018091D01*
X037570Y018249D02*
X035450Y018249D01*
X035163Y018408D02*
X037570Y018408D01*
X037570Y018566D02*
X034028Y018566D01*
X034192Y018725D02*
X037570Y018725D01*
X037570Y018883D02*
X034271Y018883D01*
X034311Y019042D02*
X037570Y019042D01*
X037570Y019200D02*
X034311Y019200D01*
X034420Y019359D02*
X037570Y019359D01*
X037570Y019517D02*
X034431Y019517D01*
X034431Y019676D02*
X037570Y019676D01*
X037570Y019834D02*
X034431Y019834D01*
X034429Y019993D02*
X037570Y019993D01*
X037570Y020151D02*
X034271Y020151D01*
X034112Y020310D02*
X037570Y020310D01*
X037570Y020468D02*
X026473Y020468D01*
X026315Y020310D02*
X031248Y020310D01*
X031369Y020431D02*
X030929Y019991D01*
X030929Y019369D01*
X031369Y018929D01*
X031991Y018929D01*
X032431Y019369D01*
X032431Y019991D01*
X031991Y020431D01*
X031369Y020431D01*
X031089Y020151D02*
X026156Y020151D01*
X025998Y019993D02*
X030931Y019993D01*
X030929Y019834D02*
X030396Y019834D01*
X030546Y019772D02*
X030220Y019907D01*
X029040Y019907D01*
X028714Y019772D01*
X028465Y019522D01*
X028330Y019196D01*
X028330Y018844D01*
X028465Y018518D01*
X028714Y018268D01*
X029040Y018133D01*
X030220Y018133D01*
X030546Y018268D01*
X030795Y018518D01*
X030930Y018844D01*
X030930Y019196D01*
X030795Y019522D01*
X030546Y019772D01*
X030642Y019676D02*
X030929Y019676D01*
X030929Y019517D02*
X030798Y019517D01*
X030863Y019359D02*
X030940Y019359D01*
X030929Y019200D02*
X031098Y019200D01*
X031257Y019042D02*
X030930Y019042D01*
X030930Y018883D02*
X032278Y018883D01*
X032436Y019042D02*
X032103Y019042D01*
X032262Y019200D02*
X032595Y019200D01*
X032753Y019359D02*
X032420Y019359D01*
X032431Y019517D02*
X032912Y019517D01*
X032929Y019676D02*
X032431Y019676D01*
X032431Y019834D02*
X032929Y019834D01*
X032931Y019993D02*
X032429Y019993D01*
X032271Y020151D02*
X033089Y020151D01*
X033248Y020310D02*
X032112Y020310D01*
X032119Y018725D02*
X030881Y018725D01*
X030816Y018566D02*
X031961Y018566D01*
X031197Y018408D02*
X030685Y018408D01*
X030500Y018249D02*
X030910Y018249D01*
X030760Y018091D02*
X026909Y018091D01*
X027282Y017932D02*
X029028Y017932D01*
X028686Y017774D02*
X027624Y017774D01*
X027783Y017615D02*
X028527Y017615D01*
X028425Y017457D02*
X027885Y017457D01*
X027951Y017298D02*
X028359Y017298D01*
X028330Y017140D02*
X027980Y017140D01*
X027980Y016981D02*
X028330Y016981D01*
X028351Y016823D02*
X027959Y016823D01*
X027894Y016664D02*
X028416Y016664D01*
X028507Y016506D02*
X027803Y016506D01*
X027645Y016347D02*
X028665Y016347D01*
X028978Y016189D02*
X027332Y016189D01*
X027270Y015977D02*
X026090Y015977D01*
X025764Y015842D01*
X025515Y015592D01*
X025380Y015266D01*
X025380Y014914D01*
X025515Y014588D01*
X025764Y014338D01*
X026090Y014203D01*
X027270Y014203D01*
X027596Y014338D01*
X027845Y014588D01*
X027980Y014914D01*
X027980Y015266D01*
X027845Y015592D01*
X027596Y015842D01*
X027270Y015977D01*
X027525Y015872D02*
X028785Y015872D01*
X028585Y015713D02*
X027725Y015713D01*
X027861Y015555D02*
X028449Y015555D01*
X028383Y015396D02*
X027927Y015396D01*
X027980Y015238D02*
X028330Y015238D01*
X028330Y015079D02*
X027980Y015079D01*
X027980Y014921D02*
X028330Y014921D01*
X028392Y014762D02*
X027918Y014762D01*
X027852Y014604D02*
X028458Y014604D01*
X028607Y014445D02*
X027703Y014445D01*
X027472Y014287D02*
X028838Y014287D01*
X030471Y016030D02*
X026985Y016030D01*
X025835Y015872D02*
X022975Y015872D01*
X023175Y015713D02*
X025635Y015713D01*
X025499Y015555D02*
X023311Y015555D01*
X023377Y015396D02*
X025433Y015396D01*
X025380Y015238D02*
X023430Y015238D01*
X023430Y015079D02*
X025380Y015079D01*
X025380Y014921D02*
X023430Y014921D01*
X023368Y014762D02*
X025442Y014762D01*
X025508Y014604D02*
X023302Y014604D01*
X023153Y014445D02*
X025657Y014445D01*
X025888Y014287D02*
X022922Y014287D01*
X024610Y016030D02*
X019680Y016030D01*
X022782Y016189D02*
X024279Y016189D01*
X024114Y016347D02*
X023095Y016347D01*
X023253Y016506D02*
X024001Y016506D01*
X023917Y016664D02*
X023344Y016664D01*
X023409Y016823D02*
X023875Y016823D01*
X023851Y016981D02*
X023430Y016981D01*
X023430Y017140D02*
X023851Y017140D01*
X023851Y017298D02*
X023401Y017298D01*
X023335Y017457D02*
X023851Y017457D01*
X023851Y017615D02*
X023233Y017615D01*
X023074Y017774D02*
X023851Y017774D01*
X023851Y017932D02*
X022732Y017932D01*
X023000Y018249D02*
X023851Y018249D01*
X023851Y018091D02*
X019409Y018091D01*
X022896Y019834D02*
X023851Y019834D01*
X023851Y019676D02*
X023142Y019676D01*
X023298Y019517D02*
X023851Y019517D01*
X023851Y019359D02*
X023363Y019359D01*
X023429Y019200D02*
X023851Y019200D01*
X023851Y019042D02*
X023430Y019042D01*
X023430Y018883D02*
X023851Y018883D01*
X023851Y018725D02*
X023381Y018725D01*
X023316Y018566D02*
X023851Y018566D01*
X023851Y018408D02*
X023185Y018408D01*
X026632Y020627D02*
X037570Y020627D01*
X037570Y020785D02*
X026790Y020785D01*
X026949Y020944D02*
X037570Y020944D01*
X037570Y021102D02*
X027107Y021102D01*
X027266Y021261D02*
X037570Y021261D01*
X037570Y021419D02*
X036511Y021419D01*
X036878Y021578D02*
X037570Y021578D01*
X037570Y021736D02*
X037080Y021736D01*
X037232Y021895D02*
X037570Y021895D01*
X037570Y022053D02*
X037323Y022053D01*
X037404Y022212D02*
X037570Y022212D01*
X037570Y022370D02*
X037447Y022370D01*
X037484Y022529D02*
X037570Y022529D01*
X037570Y022687D02*
X037484Y022687D01*
X037484Y022846D02*
X037570Y022846D01*
X037570Y023004D02*
X037443Y023004D01*
X037400Y023163D02*
X037570Y023163D01*
X037570Y023321D02*
X037315Y023321D01*
X037224Y023480D02*
X037570Y023480D01*
X037570Y023638D02*
X037066Y023638D01*
X035294Y023638D02*
X027649Y023638D01*
X027886Y023480D02*
X035136Y023480D01*
X035045Y023321D02*
X028039Y023321D01*
X028130Y023163D02*
X034960Y023163D01*
X034917Y023004D02*
X028195Y023004D01*
X028237Y022846D02*
X034876Y022846D01*
X034876Y022687D02*
X028244Y022687D01*
X028241Y022529D02*
X034876Y022529D01*
X034913Y022370D02*
X028199Y022370D01*
X028138Y022212D02*
X034956Y022212D01*
X035037Y022053D02*
X028047Y022053D01*
X027900Y021895D02*
X035128Y021895D01*
X035280Y021736D02*
X027741Y021736D01*
X027583Y021578D02*
X035482Y021578D01*
X035849Y021419D02*
X027424Y021419D01*
X027446Y019834D02*
X028864Y019834D01*
X028618Y019676D02*
X027692Y019676D01*
X027848Y019517D02*
X028462Y019517D01*
X028397Y019359D02*
X027913Y019359D01*
X027979Y019200D02*
X028331Y019200D01*
X028330Y019042D02*
X027980Y019042D01*
X027980Y018883D02*
X028330Y018883D01*
X028379Y018725D02*
X027931Y018725D01*
X027866Y018566D02*
X028444Y018566D01*
X028575Y018408D02*
X027735Y018408D01*
X027550Y018249D02*
X028760Y018249D01*
X030232Y017932D02*
X030694Y017932D01*
X030652Y017774D02*
X030574Y017774D01*
X032311Y016981D02*
X034049Y016981D01*
X034099Y016823D02*
X034114Y016823D01*
X033881Y017140D02*
X032479Y017140D01*
X032612Y017298D02*
X033748Y017298D01*
X033683Y017457D02*
X032677Y017457D01*
X032795Y017615D02*
X033652Y017615D01*
X033652Y017774D02*
X032954Y017774D01*
X033112Y017932D02*
X033694Y017932D01*
X033760Y018091D02*
X033271Y018091D01*
X033429Y018249D02*
X033910Y018249D01*
X034197Y018408D02*
X033588Y018408D01*
X033261Y016823D02*
X032246Y016823D01*
X032258Y016664D02*
X033102Y016664D01*
X032944Y016506D02*
X032416Y016506D01*
X032431Y016347D02*
X032929Y016347D01*
X032929Y016189D02*
X032431Y016189D01*
X032431Y016030D02*
X032929Y016030D01*
X032929Y015872D02*
X032431Y015872D01*
X032275Y015713D02*
X033085Y015713D01*
X033244Y015555D02*
X032116Y015555D01*
X031734Y015396D02*
X035496Y015396D01*
X035549Y015238D02*
X033292Y015238D01*
X033450Y015079D02*
X035481Y015079D01*
X035415Y014921D02*
X035131Y014921D01*
X035338Y015555D02*
X034116Y015555D01*
X034275Y015713D02*
X035179Y015713D01*
X035021Y015872D02*
X034431Y015872D01*
X034431Y016030D02*
X034862Y016030D01*
X034704Y016189D02*
X034431Y016189D01*
X034431Y016347D02*
X034545Y016347D01*
X034229Y014921D02*
X033609Y014921D01*
X033767Y014762D02*
X033923Y014762D01*
X030471Y016189D02*
X030282Y016189D01*
X036909Y010007D02*
X037570Y010007D01*
X037570Y009849D02*
X036974Y009849D01*
X036979Y009690D02*
X037570Y009690D01*
X037570Y009532D02*
X036979Y009532D01*
X036917Y009373D02*
X037570Y009373D01*
X037570Y009215D02*
X036844Y009215D01*
X036685Y009056D02*
X037570Y009056D01*
X037570Y008898D02*
X036378Y008898D01*
X033769Y007788D02*
X032606Y007788D01*
X032570Y007630D02*
X033790Y007630D01*
X033711Y007471D02*
X032649Y007471D01*
X032708Y007313D02*
X033652Y007313D01*
X033652Y007154D02*
X032708Y007154D01*
X032693Y006996D02*
X033667Y006996D01*
X033732Y006837D02*
X032628Y006837D01*
X032518Y006679D02*
X033842Y006679D01*
X034034Y006520D02*
X032326Y006520D01*
X032764Y007947D02*
X033703Y007947D01*
X033683Y008105D02*
X032923Y008105D01*
X033081Y008264D02*
X033683Y008264D01*
X033683Y008422D02*
X033240Y008422D01*
X037570Y006203D02*
X017744Y006203D01*
X017744Y006045D02*
X037570Y006045D01*
X037570Y005886D02*
X017744Y005886D01*
X017744Y005728D02*
X037570Y005728D01*
X037570Y005569D02*
X017744Y005569D01*
X017764Y005411D02*
X037570Y005411D01*
X037570Y005252D02*
X017787Y005252D01*
X017787Y005094D02*
X037570Y005094D01*
X037570Y004935D02*
X017760Y004935D01*
X017718Y004777D02*
X037570Y004777D01*
X037570Y004618D02*
X017634Y004618D01*
X017525Y004460D02*
X037570Y004460D01*
X037570Y004301D02*
X017366Y004301D01*
X017084Y004143D02*
X037570Y004143D01*
X037570Y003984D02*
X014744Y003984D01*
X014787Y003826D02*
X037570Y003826D01*
X037570Y003667D02*
X014787Y003667D01*
X014780Y003509D02*
X037570Y003509D01*
X037570Y003350D02*
X014737Y003350D01*
X014676Y003192D02*
X037570Y003192D01*
X037570Y003033D02*
X014584Y003033D01*
X014440Y002875D02*
X035642Y002875D01*
X035372Y002716D02*
X014224Y002716D01*
X013136Y002716D02*
X002988Y002716D01*
X003146Y002558D02*
X035214Y002558D01*
X035090Y002399D02*
X003270Y002399D01*
X003362Y002241D02*
X034998Y002241D01*
X034938Y002082D02*
X003422Y002082D01*
X003464Y001924D02*
X034896Y001924D01*
X034876Y001765D02*
X003484Y001765D01*
X003484Y001607D02*
X034876Y001607D01*
X034893Y001448D02*
X003467Y001448D01*
X003425Y001290D02*
X034935Y001290D01*
X034992Y001131D02*
X003368Y001131D01*
X003277Y000973D02*
X035083Y000973D01*
X035202Y000814D02*
X003158Y000814D01*
X001202Y000814D02*
X000660Y000814D01*
X000660Y000973D02*
X001083Y000973D01*
X000992Y001131D02*
X000660Y001131D01*
X000660Y001290D02*
X000935Y001290D01*
X000893Y001448D02*
X000660Y001448D01*
X000660Y001607D02*
X000876Y001607D01*
X000876Y001765D02*
X000660Y001765D01*
X000660Y001924D02*
X000896Y001924D01*
X000938Y002082D02*
X000660Y002082D01*
X000660Y002241D02*
X000998Y002241D01*
X001090Y002399D02*
X000660Y002399D01*
X000660Y002558D02*
X001214Y002558D01*
X001372Y002716D02*
X000660Y002716D01*
X000660Y002875D02*
X001642Y002875D01*
X000660Y003033D02*
X012776Y003033D01*
X012663Y003192D02*
X000660Y003192D01*
X000660Y003350D02*
X012505Y003350D01*
X012346Y003509D02*
X000660Y003509D01*
X000660Y003667D02*
X012188Y003667D01*
X012029Y003826D02*
X000660Y003826D01*
X000660Y003984D02*
X011871Y003984D01*
X011712Y004143D02*
X000660Y004143D01*
X000660Y004301D02*
X011554Y004301D01*
X011395Y004460D02*
X000660Y004460D01*
X000660Y004618D02*
X011237Y004618D01*
X011078Y004777D02*
X000660Y004777D01*
X000660Y004935D02*
X010920Y004935D01*
X010761Y005094D02*
X000660Y005094D01*
X000660Y005252D02*
X010603Y005252D01*
X010444Y005411D02*
X000660Y005411D01*
X000660Y005569D02*
X010286Y005569D01*
X010127Y005728D02*
X000660Y005728D01*
X000660Y005886D02*
X009969Y005886D01*
X009810Y006045D02*
X000660Y006045D01*
X000660Y006203D02*
X009652Y006203D01*
X009493Y006362D02*
X000660Y006362D01*
X000660Y006520D02*
X009335Y006520D01*
X009176Y006679D02*
X000660Y006679D01*
X000660Y006837D02*
X009018Y006837D01*
X008859Y006996D02*
X000660Y006996D01*
X000660Y007154D02*
X008701Y007154D01*
X008542Y007313D02*
X000660Y007313D01*
X000660Y007471D02*
X008384Y007471D01*
X008225Y007630D02*
X000660Y007630D01*
X000660Y007788D02*
X008067Y007788D01*
X007965Y007947D02*
X000660Y007947D01*
X000660Y008105D02*
X007889Y008105D01*
X007847Y008264D02*
X000660Y008264D01*
X000660Y008422D02*
X003278Y008422D01*
X003264Y008428D02*
X003590Y008293D01*
X004770Y008293D01*
X005096Y008428D01*
X005345Y008678D01*
X005480Y009004D01*
X005480Y009356D01*
X005345Y009682D01*
X005096Y009932D01*
X004770Y010067D01*
X003590Y010067D01*
X003264Y009932D01*
X003015Y009682D01*
X002880Y009356D01*
X002880Y009004D01*
X003015Y008678D01*
X003264Y008428D01*
X003112Y008581D02*
X000660Y008581D01*
X000660Y008739D02*
X002989Y008739D01*
X002923Y008898D02*
X000660Y008898D01*
X000660Y009056D02*
X002880Y009056D01*
X002880Y009215D02*
X000660Y009215D01*
X000660Y009373D02*
X002886Y009373D01*
X002952Y009532D02*
X000660Y009532D01*
X000660Y009690D02*
X003022Y009690D01*
X003181Y009849D02*
X000660Y009849D01*
X000660Y010007D02*
X003445Y010007D01*
X004915Y010007D02*
X006395Y010007D01*
X006131Y009849D02*
X005179Y009849D01*
X005338Y009690D02*
X005972Y009690D01*
X005902Y009532D02*
X005408Y009532D01*
X005474Y009373D02*
X005836Y009373D01*
X005830Y009215D02*
X005480Y009215D01*
X005480Y009056D02*
X005830Y009056D01*
X005873Y008898D02*
X005437Y008898D01*
X005371Y008739D02*
X005939Y008739D01*
X006062Y008581D02*
X005248Y008581D01*
X005082Y008422D02*
X006228Y008422D01*
X007830Y010166D02*
X000660Y010166D01*
X000660Y010324D02*
X007830Y010324D01*
X007830Y010483D02*
X000660Y010483D01*
X000660Y010641D02*
X007830Y010641D01*
X007830Y010800D02*
X000660Y010800D01*
X000660Y010958D02*
X007830Y010958D01*
X007830Y011117D02*
X000660Y011117D01*
X000660Y011275D02*
X007830Y011275D01*
X007830Y011434D02*
X000660Y011434D01*
X000660Y011592D02*
X007830Y011592D01*
X007830Y011751D02*
X000660Y011751D01*
X000660Y011909D02*
X007830Y011909D01*
X007830Y012068D02*
X000660Y012068D01*
X000660Y012226D02*
X007830Y012226D01*
X007830Y012385D02*
X000660Y012385D01*
X000660Y012543D02*
X007830Y012543D01*
X007830Y012702D02*
X000660Y012702D01*
X000660Y012860D02*
X007830Y012860D01*
X007830Y013019D02*
X000660Y013019D01*
X000660Y013177D02*
X007830Y013177D01*
X007830Y013336D02*
X000660Y013336D01*
X000660Y013494D02*
X007830Y013494D01*
X007830Y013653D02*
X000660Y013653D01*
X000660Y013811D02*
X007830Y013811D01*
X007830Y013970D02*
X000660Y013970D01*
X009959Y013970D02*
X015616Y013970D01*
X015616Y013811D02*
X009959Y013811D01*
X009959Y013653D02*
X015616Y013653D01*
X015616Y013494D02*
X009959Y013494D01*
X009959Y013336D02*
X015616Y013336D01*
X015616Y013177D02*
X009959Y013177D01*
X009959Y013019D02*
X015616Y013019D01*
X015616Y012860D02*
X009959Y012860D01*
X009959Y012702D02*
X015616Y012702D01*
X015616Y012543D02*
X009959Y012543D01*
X009959Y012385D02*
X015616Y012385D01*
X015616Y012226D02*
X009959Y012226D01*
X009959Y012068D02*
X015616Y012068D01*
X015616Y011909D02*
X009959Y011909D01*
X009959Y011751D02*
X015616Y011751D01*
X015616Y011592D02*
X009959Y011592D01*
X009959Y011434D02*
X015616Y011434D01*
X015616Y011275D02*
X009959Y011275D01*
X009959Y011117D02*
X015616Y011117D01*
X015616Y010958D02*
X009959Y010958D01*
X009959Y010800D02*
X015616Y010800D01*
X015616Y010641D02*
X009959Y010641D01*
X009959Y010483D02*
X015616Y010483D01*
X015616Y010324D02*
X009959Y010324D01*
X009959Y010166D02*
X015616Y010166D01*
X015616Y010007D02*
X015365Y010007D01*
X013895Y010007D02*
X012415Y010007D01*
X012270Y010067D02*
X012596Y009932D01*
X012845Y009682D01*
X012980Y009356D01*
X012980Y009004D01*
X012845Y008678D01*
X012596Y008428D01*
X012270Y008293D01*
X011090Y008293D01*
X010764Y008428D01*
X010515Y008678D01*
X010380Y009004D01*
X010380Y009356D01*
X010515Y009682D01*
X010764Y009932D01*
X011090Y010067D01*
X012270Y010067D01*
X012679Y009849D02*
X013631Y009849D01*
X013472Y009690D02*
X012838Y009690D01*
X012908Y009532D02*
X013402Y009532D01*
X013336Y009373D02*
X012974Y009373D01*
X012980Y009215D02*
X013330Y009215D01*
X013330Y009056D02*
X012980Y009056D01*
X012937Y008898D02*
X013373Y008898D01*
X013439Y008739D02*
X012871Y008739D01*
X012748Y008581D02*
X013562Y008581D01*
X013728Y008422D02*
X012582Y008422D01*
X011236Y007630D02*
X015616Y007630D01*
X015616Y007788D02*
X011077Y007788D01*
X010919Y007947D02*
X015616Y007947D01*
X015616Y008105D02*
X010760Y008105D01*
X010602Y008264D02*
X015616Y008264D01*
X015616Y008422D02*
X015532Y008422D01*
X015616Y007471D02*
X011394Y007471D01*
X011553Y007313D02*
X015616Y007313D01*
X015616Y007154D02*
X011711Y007154D01*
X011870Y006996D02*
X015616Y006996D01*
X015616Y006837D02*
X012028Y006837D01*
X012187Y006679D02*
X015616Y006679D01*
X015616Y006520D02*
X012345Y006520D01*
X012504Y006362D02*
X015616Y006362D01*
X015616Y006203D02*
X012662Y006203D01*
X012821Y006045D02*
X015616Y006045D01*
X015616Y005886D02*
X012979Y005886D01*
X013138Y005728D02*
X015616Y005728D01*
X015616Y005569D02*
X013296Y005569D01*
X013455Y005411D02*
X015596Y005411D01*
X015573Y005252D02*
X013613Y005252D01*
X013772Y005094D02*
X015573Y005094D01*
X015600Y004935D02*
X013930Y004935D01*
X014089Y004777D02*
X015642Y004777D01*
X015726Y004618D02*
X014269Y004618D01*
X014466Y004460D02*
X015835Y004460D01*
X015994Y004301D02*
X014599Y004301D01*
X014691Y004143D02*
X016276Y004143D01*
X012920Y002875D02*
X002718Y002875D01*
X010443Y008422D02*
X010778Y008422D01*
X010612Y008581D02*
X010285Y008581D01*
X010126Y008739D02*
X010489Y008739D01*
X010423Y008898D02*
X009968Y008898D01*
X009959Y009056D02*
X010380Y009056D01*
X010380Y009215D02*
X009959Y009215D01*
X009959Y009373D02*
X010386Y009373D01*
X010452Y009532D02*
X009959Y009532D01*
X009959Y009690D02*
X010522Y009690D01*
X010681Y009849D02*
X009959Y009849D01*
X009959Y010007D02*
X010945Y010007D01*
X028584Y008422D02*
X028728Y008422D01*
X036718Y002875D02*
X037570Y002875D01*
X037570Y002716D02*
X036988Y002716D01*
X037146Y002558D02*
X037570Y002558D01*
X037570Y002399D02*
X037270Y002399D01*
X037362Y002241D02*
X037570Y002241D01*
X037570Y002082D02*
X037422Y002082D01*
X037464Y001924D02*
X037570Y001924D01*
X037570Y001765D02*
X037484Y001765D01*
X037484Y001607D02*
X037570Y001607D01*
X037570Y001448D02*
X037467Y001448D01*
X037425Y001290D02*
X037570Y001290D01*
X037570Y001131D02*
X037368Y001131D01*
X037277Y000973D02*
X037570Y000973D01*
X037570Y000814D02*
X037158Y000814D01*
D20*
X036180Y001680D03*
X036180Y022680D03*
X002180Y022680D03*
X002180Y001680D03*
M02*
