%
M48
M72
T01C0.0354
T02C0.0433
T03C0.0551
T04C0.0630
T05C0.0866
T06C0.1260
%
T01
X31680Y7180
X31680Y9180
X33680Y9180
X34680Y10680
X31680Y10680
X31680Y12680
X33680Y12680
X34680Y14180
X33680Y16180
X31680Y16180
X31680Y17680
X31680Y19680
X33680Y19680
X34680Y17680
X31680Y14180
X34680Y7180
T02
X36180Y9680
X36180Y10680
X36180Y11680
X36180Y12680
X36180Y13680
X36180Y14680
T03
X29630Y15090
X29630Y17050
X26680Y17050
X26680Y15090
X22130Y15090
X19180Y15090
X19180Y17050
X22130Y17050
X22130Y19020
X19180Y19020
X14630Y19020
X11680Y19020
X11680Y17050
X11680Y15090
X14630Y15090
X14630Y17050
X7130Y17050
X7130Y15090
X4180Y15090
X4180Y17050
X4180Y19020
X7130Y19020
X7130Y9180
X4180Y9180
X11680Y9180
X14630Y9180
X19180Y9180
X22130Y9180
X26680Y9180
X29630Y9180
X29630Y19020
X26680Y19020
T04
X27180Y22680
X29180Y22680
X21680Y22680
X19680Y22680
X14180Y22680
X12180Y22680
X6680Y22680
X4680Y22680
T05
X16680Y5180
X13680Y3680
X19680Y3680
T06
X2180Y1680
X2180Y22680
X36180Y22680
X36180Y1680
M30
