G75*
G70*
%OFA0B0*%
%FSLAX24Y24*%
%IPPOS*%
%LPD*%
%AMOC8*
5,1,8,0,0,1.08239X$1,22.5*
%
%ADD10C,0.0060*%
%ADD11C,0.0100*%
%ADD12C,0.0070*%
%ADD13C,0.0050*%
%ADD14R,0.0200X0.0800*%
%ADD15R,0.0250X0.0200*%
%ADD16C,0.0120*%
%ADD17C,0.0040*%
D10*
X001616Y006710D02*
X001509Y006817D01*
X001509Y007030D01*
X001616Y007137D01*
X001830Y007030D02*
X001936Y007137D01*
X002043Y007137D01*
X002150Y007030D01*
X002150Y006817D01*
X002043Y006710D01*
X001830Y006817D02*
X001830Y007030D01*
X001830Y006817D02*
X001723Y006710D01*
X001616Y006710D01*
X001509Y007355D02*
X001509Y007675D01*
X001616Y007782D01*
X001830Y007782D01*
X001936Y007675D01*
X001936Y007355D01*
X002150Y007355D02*
X001509Y007355D01*
X001616Y007999D02*
X001509Y008106D01*
X001509Y008319D01*
X001616Y008426D01*
X001723Y008426D01*
X002150Y007999D01*
X002150Y008426D01*
X002150Y008644D02*
X002150Y008964D01*
X002043Y009071D01*
X001616Y009071D01*
X001509Y008964D01*
X001509Y008644D01*
X002150Y008644D01*
X002150Y009288D02*
X001509Y009288D01*
X001509Y009715D02*
X002150Y009715D01*
X001936Y009502D01*
X002150Y009288D01*
X002043Y009933D02*
X001616Y009933D01*
X001509Y010040D01*
X001509Y010253D01*
X001616Y010360D01*
X001830Y010360D02*
X001830Y010146D01*
X001830Y010360D02*
X002043Y010360D01*
X002150Y010253D01*
X002150Y010040D01*
X002043Y009933D01*
X002043Y011222D02*
X002150Y011329D01*
X002150Y011542D01*
X002043Y011649D01*
X001936Y011649D01*
X001830Y011542D01*
X001830Y011329D01*
X001723Y011222D01*
X001616Y011222D01*
X001509Y011329D01*
X001509Y011542D01*
X001616Y011649D01*
X001723Y011866D02*
X001723Y012080D01*
X001616Y011973D02*
X002043Y011973D01*
X002150Y012080D01*
X002043Y012296D02*
X001936Y012403D01*
X001936Y012723D01*
X001830Y012723D02*
X002150Y012723D01*
X002150Y012403D01*
X002043Y012296D01*
X001723Y012403D02*
X001723Y012616D01*
X001830Y012723D01*
X001830Y012941D02*
X002043Y012941D01*
X002150Y013047D01*
X002150Y013368D01*
X002150Y013585D02*
X001509Y013585D01*
X001723Y013368D02*
X001723Y013047D01*
X001830Y012941D01*
X001936Y013585D02*
X001723Y013905D01*
X001936Y013585D02*
X002150Y013905D01*
X002043Y014767D02*
X002150Y014874D01*
X002150Y015087D01*
X002043Y015194D01*
X001936Y015194D01*
X001830Y015087D01*
X001830Y014874D01*
X001723Y014767D01*
X001616Y014767D01*
X001509Y014874D01*
X001509Y015087D01*
X001616Y015194D01*
X001723Y015411D02*
X002043Y015411D01*
X002150Y015518D01*
X002043Y015625D01*
X002150Y015732D01*
X002043Y015838D01*
X001723Y015838D01*
X001723Y016056D02*
X001723Y016163D01*
X002150Y016163D01*
X002150Y016269D02*
X002150Y016056D01*
X001723Y016486D02*
X001723Y016699D01*
X001616Y016592D02*
X002043Y016592D01*
X002150Y016699D01*
X002043Y016915D02*
X001830Y016915D01*
X001723Y017022D01*
X001723Y017342D01*
X001830Y017560D02*
X001723Y017667D01*
X001723Y017880D01*
X001830Y017987D01*
X002150Y017987D01*
X002150Y017560D02*
X001509Y017560D01*
X002150Y017342D02*
X002150Y017022D01*
X002043Y016915D01*
X001509Y016163D02*
X001403Y016163D01*
X004900Y017080D02*
X005080Y017080D01*
X005080Y017880D01*
X006180Y017880D01*
X006180Y017080D01*
X005880Y017080D01*
X006180Y017080D02*
X006380Y017080D01*
X005660Y016860D02*
X005660Y015080D01*
X004900Y015080D01*
X005660Y015080D02*
X006410Y015080D01*
X005660Y017460D02*
X005660Y019030D01*
X004900Y019030D01*
X005660Y019030D02*
X006410Y019030D01*
X008280Y019780D02*
X003130Y019780D01*
X003130Y008330D01*
X008280Y008330D01*
X008280Y019780D01*
X010630Y019780D02*
X010630Y008330D01*
X015780Y008330D01*
X015780Y019780D01*
X010630Y019780D01*
X012400Y019030D02*
X013160Y019030D01*
X013910Y019030D01*
X013160Y019030D02*
X013160Y017460D01*
X013380Y017080D02*
X013680Y017080D01*
X013680Y017880D01*
X012580Y017880D01*
X012580Y017080D01*
X012400Y017080D01*
X013160Y016860D02*
X013160Y015080D01*
X012400Y015080D01*
X013160Y015080D02*
X013910Y015080D01*
X013880Y017080D02*
X013680Y017080D01*
X018130Y019780D02*
X018130Y008330D01*
X023280Y008330D01*
X023280Y019780D01*
X018130Y019780D01*
X019900Y019030D02*
X020660Y019030D01*
X021410Y019030D01*
X020660Y019030D02*
X020660Y017460D01*
X020880Y017080D02*
X021180Y017080D01*
X021180Y017880D01*
X020080Y017880D01*
X020080Y017080D01*
X019900Y017080D01*
X020660Y016860D02*
X020660Y015080D01*
X019900Y015080D01*
X020660Y015080D02*
X021410Y015080D01*
X021380Y017080D02*
X021180Y017080D01*
X025630Y019780D02*
X025630Y008330D01*
X030780Y008330D01*
X030780Y019780D01*
X025630Y019780D01*
X027400Y019030D02*
X028160Y019030D01*
X028910Y019030D01*
X028160Y019030D02*
X028160Y017460D01*
X028380Y017080D02*
X028680Y017080D01*
X028680Y017880D01*
X027580Y017880D01*
X027580Y017080D01*
X027400Y017080D01*
X028160Y016860D02*
X028160Y015080D01*
X027400Y015080D01*
X028160Y015080D02*
X028910Y015080D01*
X031230Y015580D02*
X031230Y016780D01*
X031232Y016797D01*
X031236Y016814D01*
X031243Y016830D01*
X031253Y016844D01*
X031266Y016857D01*
X031280Y016867D01*
X031296Y016874D01*
X031313Y016878D01*
X031330Y016880D01*
X034030Y016880D01*
X034047Y016878D01*
X034064Y016874D01*
X034080Y016867D01*
X034094Y016857D01*
X034107Y016844D01*
X034117Y016830D01*
X034124Y016814D01*
X034128Y016797D01*
X034130Y016780D01*
X034130Y015580D01*
X034128Y015563D01*
X034124Y015546D01*
X034117Y015530D01*
X034107Y015516D01*
X034094Y015503D01*
X034080Y015493D01*
X034064Y015486D01*
X034047Y015482D01*
X034030Y015480D01*
X031330Y015480D01*
X031313Y015482D01*
X031296Y015486D01*
X031280Y015493D01*
X031266Y015503D01*
X031253Y015516D01*
X031243Y015530D01*
X031236Y015546D01*
X031232Y015563D01*
X031230Y015580D01*
X032080Y016180D02*
X032550Y016180D01*
X032800Y016180D02*
X033280Y016180D01*
X033980Y017280D02*
X032380Y017280D01*
X032363Y017282D01*
X032346Y017286D01*
X032330Y017293D01*
X032316Y017303D01*
X032303Y017316D01*
X032293Y017330D01*
X032286Y017346D01*
X032282Y017363D01*
X032280Y017380D01*
X032280Y017980D01*
X032282Y017997D01*
X032286Y018014D01*
X032293Y018030D01*
X032303Y018044D01*
X032316Y018057D01*
X032330Y018067D01*
X032346Y018074D01*
X032363Y018078D01*
X032380Y018080D01*
X033980Y018080D01*
X033997Y018078D01*
X034014Y018074D01*
X034030Y018067D01*
X034044Y018057D01*
X034057Y018044D01*
X034067Y018030D01*
X034074Y018014D01*
X034078Y017997D01*
X034080Y017980D01*
X034080Y017380D01*
X034078Y017363D01*
X034074Y017346D01*
X034067Y017330D01*
X034057Y017316D01*
X034044Y017303D01*
X034030Y017293D01*
X034014Y017286D01*
X033997Y017282D01*
X033980Y017280D01*
X033580Y017430D02*
X033180Y017680D01*
X033180Y017430D01*
X033180Y017680D02*
X032930Y017680D01*
X033180Y017680D02*
X033180Y017930D01*
X033180Y017680D02*
X033580Y017930D01*
X033580Y017430D01*
X033780Y017680D02*
X033180Y017680D01*
X034030Y018980D02*
X031330Y018980D01*
X031313Y018982D01*
X031296Y018986D01*
X031280Y018993D01*
X031266Y019003D01*
X031253Y019016D01*
X031243Y019030D01*
X031236Y019046D01*
X031232Y019063D01*
X031230Y019080D01*
X031230Y020280D01*
X031232Y020297D01*
X031236Y020314D01*
X031243Y020330D01*
X031253Y020344D01*
X031266Y020357D01*
X031280Y020367D01*
X031296Y020374D01*
X031313Y020378D01*
X031330Y020380D01*
X034030Y020380D01*
X034047Y020378D01*
X034064Y020374D01*
X034080Y020367D01*
X034094Y020357D01*
X034107Y020344D01*
X034117Y020330D01*
X034124Y020314D01*
X034128Y020297D01*
X034130Y020280D01*
X034130Y019080D01*
X034128Y019063D01*
X034124Y019046D01*
X034117Y019030D01*
X034107Y019016D01*
X034094Y019003D01*
X034080Y018993D01*
X034064Y018986D01*
X034047Y018982D01*
X034030Y018980D01*
X033280Y019680D02*
X032800Y019680D01*
X032550Y019680D02*
X032080Y019680D01*
X028880Y017080D02*
X028680Y017080D01*
X032280Y014480D02*
X032280Y013880D01*
X032282Y013863D01*
X032286Y013846D01*
X032293Y013830D01*
X032303Y013816D01*
X032316Y013803D01*
X032330Y013793D01*
X032346Y013786D01*
X032363Y013782D01*
X032380Y013780D01*
X033980Y013780D01*
X033997Y013782D01*
X034014Y013786D01*
X034030Y013793D01*
X034044Y013803D01*
X034057Y013816D01*
X034067Y013830D01*
X034074Y013846D01*
X034078Y013863D01*
X034080Y013880D01*
X034080Y014480D01*
X034078Y014497D01*
X034074Y014514D01*
X034067Y014530D01*
X034057Y014544D01*
X034044Y014557D01*
X034030Y014567D01*
X034014Y014574D01*
X033997Y014578D01*
X033980Y014580D01*
X032380Y014580D01*
X032363Y014578D01*
X032346Y014574D01*
X032330Y014567D01*
X032316Y014557D01*
X032303Y014544D01*
X032293Y014530D01*
X032286Y014514D01*
X032282Y014497D01*
X032280Y014480D01*
X032930Y014180D02*
X033180Y014180D01*
X033180Y013930D01*
X033180Y014180D02*
X033180Y014430D01*
X033180Y014180D02*
X033580Y014430D01*
X033580Y013930D01*
X033180Y014180D01*
X033780Y014180D01*
X034030Y013380D02*
X031330Y013380D01*
X031313Y013378D01*
X031296Y013374D01*
X031280Y013367D01*
X031266Y013357D01*
X031253Y013344D01*
X031243Y013330D01*
X031236Y013314D01*
X031232Y013297D01*
X031230Y013280D01*
X031230Y012080D01*
X031232Y012063D01*
X031236Y012046D01*
X031243Y012030D01*
X031253Y012016D01*
X031266Y012003D01*
X031280Y011993D01*
X031296Y011986D01*
X031313Y011982D01*
X031330Y011980D01*
X034030Y011980D01*
X034047Y011982D01*
X034064Y011986D01*
X034080Y011993D01*
X034094Y012003D01*
X034107Y012016D01*
X034117Y012030D01*
X034124Y012046D01*
X034128Y012063D01*
X034130Y012080D01*
X034130Y013280D01*
X034128Y013297D01*
X034124Y013314D01*
X034117Y013330D01*
X034107Y013344D01*
X034094Y013357D01*
X034080Y013367D01*
X034064Y013374D01*
X034047Y013378D01*
X034030Y013380D01*
X033280Y012680D02*
X032800Y012680D01*
X032550Y012680D02*
X032080Y012680D01*
X032380Y011080D02*
X033980Y011080D01*
X033997Y011078D01*
X034014Y011074D01*
X034030Y011067D01*
X034044Y011057D01*
X034057Y011044D01*
X034067Y011030D01*
X034074Y011014D01*
X034078Y010997D01*
X034080Y010980D01*
X034080Y010380D01*
X034078Y010363D01*
X034074Y010346D01*
X034067Y010330D01*
X034057Y010316D01*
X034044Y010303D01*
X034030Y010293D01*
X034014Y010286D01*
X033997Y010282D01*
X033980Y010280D01*
X032380Y010280D01*
X032363Y010282D01*
X032346Y010286D01*
X032330Y010293D01*
X032316Y010303D01*
X032303Y010316D01*
X032293Y010330D01*
X032286Y010346D01*
X032282Y010363D01*
X032280Y010380D01*
X032280Y010980D01*
X032282Y010997D01*
X032286Y011014D01*
X032293Y011030D01*
X032303Y011044D01*
X032316Y011057D01*
X032330Y011067D01*
X032346Y011074D01*
X032363Y011078D01*
X032380Y011080D01*
X032930Y010680D02*
X033180Y010680D01*
X033180Y010430D01*
X033180Y010680D02*
X033180Y010930D01*
X033180Y010680D02*
X033580Y010930D01*
X033580Y010430D01*
X033180Y010680D01*
X033780Y010680D01*
X034030Y009880D02*
X031330Y009880D01*
X031313Y009878D01*
X031296Y009874D01*
X031280Y009867D01*
X031266Y009857D01*
X031253Y009844D01*
X031243Y009830D01*
X031236Y009814D01*
X031232Y009797D01*
X031230Y009780D01*
X031230Y008580D01*
X031232Y008563D01*
X031236Y008546D01*
X031243Y008530D01*
X031253Y008516D01*
X031266Y008503D01*
X031280Y008493D01*
X031296Y008486D01*
X031313Y008482D01*
X031330Y008480D01*
X034030Y008480D01*
X034047Y008482D01*
X034064Y008486D01*
X034080Y008493D01*
X034094Y008503D01*
X034107Y008516D01*
X034117Y008530D01*
X034124Y008546D01*
X034128Y008563D01*
X034130Y008580D01*
X034130Y009780D01*
X034128Y009797D01*
X034124Y009814D01*
X034117Y009830D01*
X034107Y009844D01*
X034094Y009857D01*
X034080Y009867D01*
X034064Y009874D01*
X034047Y009878D01*
X034030Y009880D01*
X033280Y009180D02*
X032800Y009180D01*
X032550Y009180D02*
X032080Y009180D01*
X032380Y007580D02*
X033980Y007580D01*
X033997Y007578D01*
X034014Y007574D01*
X034030Y007567D01*
X034044Y007557D01*
X034057Y007544D01*
X034067Y007530D01*
X034074Y007514D01*
X034078Y007497D01*
X034080Y007480D01*
X034080Y006880D01*
X034078Y006863D01*
X034074Y006846D01*
X034067Y006830D01*
X034057Y006816D01*
X034044Y006803D01*
X034030Y006793D01*
X034014Y006786D01*
X033997Y006782D01*
X033980Y006780D01*
X032380Y006780D01*
X032363Y006782D01*
X032346Y006786D01*
X032330Y006793D01*
X032316Y006803D01*
X032303Y006816D01*
X032293Y006830D01*
X032286Y006846D01*
X032282Y006863D01*
X032280Y006880D01*
X032280Y007480D01*
X032282Y007497D01*
X032286Y007514D01*
X032293Y007530D01*
X032303Y007544D01*
X032316Y007557D01*
X032330Y007567D01*
X032346Y007574D01*
X032363Y007578D01*
X032380Y007580D01*
X032930Y007180D02*
X033180Y007180D01*
X033180Y006930D01*
X033180Y007180D02*
X033180Y007430D01*
X033180Y007180D02*
X033580Y007430D01*
X033580Y006930D01*
X033180Y007180D01*
X033780Y007180D01*
X035930Y009180D02*
X035680Y009430D01*
X035680Y009930D01*
X035930Y010180D01*
X035680Y010430D01*
X035680Y010930D01*
X035930Y011180D01*
X036430Y011180D01*
X036680Y010930D01*
X036680Y010430D01*
X036430Y010180D01*
X036680Y009930D01*
X036680Y009430D01*
X036430Y009180D01*
X035930Y009180D01*
X035930Y010180D02*
X036430Y010180D01*
X036430Y011180D02*
X036680Y011430D01*
X036680Y011930D01*
X036430Y012180D01*
X036680Y012430D01*
X036680Y012930D01*
X036430Y013180D01*
X036680Y013430D01*
X036680Y013930D01*
X036430Y014180D01*
X036680Y014430D01*
X036680Y014930D01*
X036430Y015180D01*
X035930Y015180D01*
X035680Y014930D01*
X035680Y014430D01*
X035930Y014180D01*
X036430Y014180D01*
X035930Y014180D02*
X035680Y013930D01*
X035680Y013430D01*
X035930Y013180D01*
X036430Y013180D01*
X035930Y013180D02*
X035680Y012930D01*
X035680Y012430D01*
X035930Y012180D01*
X036430Y012180D01*
X035930Y012180D02*
X035680Y011930D01*
X035680Y011430D01*
X035930Y011180D01*
X028940Y009180D02*
X028700Y009180D01*
X028700Y008690D02*
X027710Y009670D01*
X027710Y009180D02*
X027370Y009180D01*
X021440Y009180D02*
X021200Y009180D01*
X021200Y008690D02*
X020210Y009670D01*
X020210Y009180D02*
X019870Y009180D01*
X013940Y009180D02*
X013700Y009180D01*
X013700Y008690D02*
X012710Y009670D01*
X012710Y009180D02*
X012370Y009180D01*
X006440Y009180D02*
X006200Y009180D01*
X006200Y008690D02*
X005210Y009670D01*
X005210Y009180D02*
X004870Y009180D01*
X001723Y018849D02*
X002150Y019063D01*
X001723Y019276D01*
X001723Y019494D02*
X001509Y019707D01*
X002150Y019707D01*
X002150Y019494D02*
X002150Y019921D01*
X002150Y020138D02*
X002150Y020245D01*
X002043Y020245D01*
X002043Y020138D01*
X002150Y020138D01*
X002043Y020460D02*
X001616Y020460D01*
X001509Y020567D01*
X001509Y020781D01*
X001616Y020887D01*
X002043Y020460D01*
X002150Y020567D01*
X002150Y020781D01*
X002043Y020887D01*
X001616Y020887D01*
D11*
X005610Y019030D02*
X005612Y019043D01*
X005617Y019056D01*
X005626Y019067D01*
X005637Y019074D01*
X005650Y019079D01*
X005663Y019080D01*
X005677Y019077D01*
X005689Y019071D01*
X005699Y019062D01*
X005706Y019050D01*
X005710Y019037D01*
X005710Y019023D01*
X005706Y019010D01*
X005699Y018998D01*
X005689Y018989D01*
X005677Y018983D01*
X005663Y018980D01*
X005650Y018981D01*
X005637Y018986D01*
X005626Y018993D01*
X005617Y019004D01*
X005612Y019017D01*
X005610Y019030D01*
X005880Y017080D02*
X005660Y016860D01*
X005530Y016730D01*
X006130Y017080D02*
X006132Y017093D01*
X006137Y017106D01*
X006146Y017117D01*
X006157Y017124D01*
X006170Y017129D01*
X006183Y017130D01*
X006197Y017127D01*
X006209Y017121D01*
X006219Y017112D01*
X006226Y017100D01*
X006230Y017087D01*
X006230Y017073D01*
X006226Y017060D01*
X006219Y017048D01*
X006209Y017039D01*
X006197Y017033D01*
X006183Y017030D01*
X006170Y017031D01*
X006157Y017036D01*
X006146Y017043D01*
X006137Y017054D01*
X006132Y017067D01*
X006130Y017080D01*
X005610Y015080D02*
X005612Y015093D01*
X005617Y015106D01*
X005626Y015117D01*
X005637Y015124D01*
X005650Y015129D01*
X005663Y015130D01*
X005677Y015127D01*
X005689Y015121D01*
X005699Y015112D01*
X005706Y015100D01*
X005710Y015087D01*
X005710Y015073D01*
X005706Y015060D01*
X005699Y015048D01*
X005689Y015039D01*
X005677Y015033D01*
X005663Y015030D01*
X005650Y015031D01*
X005637Y015036D01*
X005626Y015043D01*
X005617Y015054D01*
X005612Y015067D01*
X005610Y015080D01*
X013030Y016730D02*
X013160Y016860D01*
X013380Y017080D01*
X013630Y017080D02*
X013632Y017093D01*
X013637Y017106D01*
X013646Y017117D01*
X013657Y017124D01*
X013670Y017129D01*
X013683Y017130D01*
X013697Y017127D01*
X013709Y017121D01*
X013719Y017112D01*
X013726Y017100D01*
X013730Y017087D01*
X013730Y017073D01*
X013726Y017060D01*
X013719Y017048D01*
X013709Y017039D01*
X013697Y017033D01*
X013683Y017030D01*
X013670Y017031D01*
X013657Y017036D01*
X013646Y017043D01*
X013637Y017054D01*
X013632Y017067D01*
X013630Y017080D01*
X013110Y019030D02*
X013112Y019043D01*
X013117Y019056D01*
X013126Y019067D01*
X013137Y019074D01*
X013150Y019079D01*
X013163Y019080D01*
X013177Y019077D01*
X013189Y019071D01*
X013199Y019062D01*
X013206Y019050D01*
X013210Y019037D01*
X013210Y019023D01*
X013206Y019010D01*
X013199Y018998D01*
X013189Y018989D01*
X013177Y018983D01*
X013163Y018980D01*
X013150Y018981D01*
X013137Y018986D01*
X013126Y018993D01*
X013117Y019004D01*
X013112Y019017D01*
X013110Y019030D01*
X013110Y015080D02*
X013112Y015093D01*
X013117Y015106D01*
X013126Y015117D01*
X013137Y015124D01*
X013150Y015129D01*
X013163Y015130D01*
X013177Y015127D01*
X013189Y015121D01*
X013199Y015112D01*
X013206Y015100D01*
X013210Y015087D01*
X013210Y015073D01*
X013206Y015060D01*
X013199Y015048D01*
X013189Y015039D01*
X013177Y015033D01*
X013163Y015030D01*
X013150Y015031D01*
X013137Y015036D01*
X013126Y015043D01*
X013117Y015054D01*
X013112Y015067D01*
X013110Y015080D01*
X020610Y015080D02*
X020612Y015093D01*
X020617Y015106D01*
X020626Y015117D01*
X020637Y015124D01*
X020650Y015129D01*
X020663Y015130D01*
X020677Y015127D01*
X020689Y015121D01*
X020699Y015112D01*
X020706Y015100D01*
X020710Y015087D01*
X020710Y015073D01*
X020706Y015060D01*
X020699Y015048D01*
X020689Y015039D01*
X020677Y015033D01*
X020663Y015030D01*
X020650Y015031D01*
X020637Y015036D01*
X020626Y015043D01*
X020617Y015054D01*
X020612Y015067D01*
X020610Y015080D01*
X020530Y016730D02*
X020660Y016860D01*
X020880Y017080D01*
X021130Y017080D02*
X021132Y017093D01*
X021137Y017106D01*
X021146Y017117D01*
X021157Y017124D01*
X021170Y017129D01*
X021183Y017130D01*
X021197Y017127D01*
X021209Y017121D01*
X021219Y017112D01*
X021226Y017100D01*
X021230Y017087D01*
X021230Y017073D01*
X021226Y017060D01*
X021219Y017048D01*
X021209Y017039D01*
X021197Y017033D01*
X021183Y017030D01*
X021170Y017031D01*
X021157Y017036D01*
X021146Y017043D01*
X021137Y017054D01*
X021132Y017067D01*
X021130Y017080D01*
X020610Y019030D02*
X020612Y019043D01*
X020617Y019056D01*
X020626Y019067D01*
X020637Y019074D01*
X020650Y019079D01*
X020663Y019080D01*
X020677Y019077D01*
X020689Y019071D01*
X020699Y019062D01*
X020706Y019050D01*
X020710Y019037D01*
X020710Y019023D01*
X020706Y019010D01*
X020699Y018998D01*
X020689Y018989D01*
X020677Y018983D01*
X020663Y018980D01*
X020650Y018981D01*
X020637Y018986D01*
X020626Y018993D01*
X020617Y019004D01*
X020612Y019017D01*
X020610Y019030D01*
X028110Y019030D02*
X028112Y019043D01*
X028117Y019056D01*
X028126Y019067D01*
X028137Y019074D01*
X028150Y019079D01*
X028163Y019080D01*
X028177Y019077D01*
X028189Y019071D01*
X028199Y019062D01*
X028206Y019050D01*
X028210Y019037D01*
X028210Y019023D01*
X028206Y019010D01*
X028199Y018998D01*
X028189Y018989D01*
X028177Y018983D01*
X028163Y018980D01*
X028150Y018981D01*
X028137Y018986D01*
X028126Y018993D01*
X028117Y019004D01*
X028112Y019017D01*
X028110Y019030D01*
X028380Y017080D02*
X028160Y016860D01*
X028030Y016730D01*
X028630Y017080D02*
X028632Y017093D01*
X028637Y017106D01*
X028646Y017117D01*
X028657Y017124D01*
X028670Y017129D01*
X028683Y017130D01*
X028697Y017127D01*
X028709Y017121D01*
X028719Y017112D01*
X028726Y017100D01*
X028730Y017087D01*
X028730Y017073D01*
X028726Y017060D01*
X028719Y017048D01*
X028709Y017039D01*
X028697Y017033D01*
X028683Y017030D01*
X028670Y017031D01*
X028657Y017036D01*
X028646Y017043D01*
X028637Y017054D01*
X028632Y017067D01*
X028630Y017080D01*
X028110Y015080D02*
X028112Y015093D01*
X028117Y015106D01*
X028126Y015117D01*
X028137Y015124D01*
X028150Y015129D01*
X028163Y015130D01*
X028177Y015127D01*
X028189Y015121D01*
X028199Y015112D01*
X028206Y015100D01*
X028210Y015087D01*
X028210Y015073D01*
X028206Y015060D01*
X028199Y015048D01*
X028189Y015039D01*
X028177Y015033D01*
X028163Y015030D01*
X028150Y015031D01*
X028137Y015036D01*
X028126Y015043D01*
X028117Y015054D01*
X028112Y015067D01*
X028110Y015080D01*
X027710Y009920D02*
X027710Y009670D01*
X027710Y009180D01*
X027710Y008440D01*
X028700Y008440D01*
X028700Y008690D01*
X028700Y009180D01*
X028700Y009920D01*
X027710Y009920D01*
X021200Y009920D02*
X021200Y009180D01*
X021200Y008690D01*
X021200Y008440D01*
X020210Y008440D01*
X020210Y009180D01*
X020210Y009670D01*
X020210Y009920D01*
X021200Y009920D01*
X013700Y009920D02*
X013700Y009180D01*
X013700Y008690D01*
X013700Y008440D01*
X012710Y008440D01*
X012710Y009180D01*
X012710Y009670D01*
X012710Y009920D01*
X013700Y009920D01*
X006200Y009920D02*
X006200Y009180D01*
X006200Y008690D01*
X006200Y008440D01*
X005210Y008440D01*
X005210Y009180D01*
X005210Y009670D01*
X005210Y009920D01*
X006200Y009920D01*
D12*
X006906Y020005D02*
X006906Y020636D01*
X007011Y020320D02*
X007326Y020005D01*
X007550Y020005D02*
X007971Y020005D01*
X007761Y020005D02*
X007761Y020636D01*
X007550Y020425D01*
X007326Y020636D02*
X006906Y020215D01*
X014406Y020215D02*
X014826Y020636D01*
X015050Y020530D02*
X015156Y020636D01*
X015366Y020636D01*
X015471Y020530D01*
X015471Y020425D01*
X015050Y020005D01*
X015471Y020005D01*
X014826Y020005D02*
X014511Y020320D01*
X014406Y020636D02*
X014406Y020005D01*
X021906Y020005D02*
X021906Y020636D01*
X022011Y020320D02*
X022326Y020005D01*
X022550Y020110D02*
X022656Y020005D01*
X022866Y020005D01*
X022971Y020110D01*
X022971Y020215D01*
X022866Y020320D01*
X022761Y020320D01*
X022866Y020320D02*
X022971Y020425D01*
X022971Y020530D01*
X022866Y020636D01*
X022656Y020636D01*
X022550Y020530D01*
X022326Y020636D02*
X021906Y020215D01*
X029406Y020215D02*
X029826Y020636D01*
X030050Y020320D02*
X030471Y020320D01*
X030366Y020005D02*
X030366Y020636D01*
X030050Y020320D01*
X029826Y020005D02*
X029511Y020320D01*
X029406Y020636D02*
X029406Y020005D01*
D13*
X004680Y006680D02*
X004680Y000680D01*
X025680Y000680D01*
X028680Y000680D01*
X028680Y006680D01*
X004680Y006680D01*
X003680Y021680D02*
X003680Y023680D01*
X007680Y023680D01*
X007680Y021680D01*
X003680Y021680D01*
X011180Y021680D02*
X011180Y023680D01*
X015180Y023680D01*
X015180Y021680D01*
X011180Y021680D01*
X018680Y021680D02*
X018680Y023680D01*
X022680Y023680D01*
X022680Y021680D01*
X018680Y021680D01*
X026180Y021680D02*
X026180Y023680D01*
X030180Y023680D01*
X030180Y021680D01*
X026180Y021680D01*
X032305Y018655D02*
X032305Y018205D01*
X032530Y018205D01*
X032605Y018280D01*
X032605Y018580D01*
X032530Y018655D01*
X032305Y018655D01*
X032765Y018430D02*
X033066Y018430D01*
X033184Y018430D02*
X033259Y018355D01*
X033409Y018355D01*
X033484Y018430D01*
X033645Y018580D02*
X033945Y018580D01*
X033870Y018355D02*
X033870Y018805D01*
X033645Y018580D01*
X033484Y018730D02*
X033409Y018805D01*
X033259Y018805D01*
X033184Y018730D01*
X033184Y018430D01*
X032991Y018205D02*
X032991Y018655D01*
X032765Y018430D01*
X033259Y015305D02*
X033184Y015230D01*
X033184Y014930D01*
X033259Y014855D01*
X033409Y014855D01*
X033484Y014930D01*
X033645Y014930D02*
X033720Y014855D01*
X033870Y014855D01*
X033945Y014930D01*
X033945Y015005D01*
X033870Y015080D01*
X033795Y015080D01*
X033870Y015080D02*
X033945Y015155D01*
X033945Y015230D01*
X033870Y015305D01*
X033720Y015305D01*
X033645Y015230D01*
X033484Y015230D02*
X033409Y015305D01*
X033259Y015305D01*
X033066Y015080D02*
X032991Y015155D01*
X032840Y015155D01*
X032765Y015080D01*
X032605Y015080D02*
X032605Y014780D01*
X032530Y014705D01*
X032305Y014705D01*
X032305Y015155D01*
X032530Y015155D01*
X032605Y015080D01*
X032765Y014780D02*
X032840Y014705D01*
X032991Y014705D01*
X033066Y014780D01*
X033066Y014855D01*
X032991Y014930D01*
X032916Y014930D01*
X032991Y014930D02*
X033066Y015005D01*
X033066Y015080D01*
X033259Y011805D02*
X033184Y011730D01*
X033184Y011430D01*
X033259Y011355D01*
X033409Y011355D01*
X033484Y011430D01*
X033645Y011355D02*
X033945Y011655D01*
X033945Y011730D01*
X033870Y011805D01*
X033720Y011805D01*
X033645Y011730D01*
X033484Y011730D02*
X033409Y011805D01*
X033259Y011805D01*
X033066Y011580D02*
X032991Y011655D01*
X032840Y011655D01*
X032765Y011580D01*
X032605Y011580D02*
X032605Y011280D01*
X032530Y011205D01*
X032305Y011205D01*
X032305Y011655D01*
X032530Y011655D01*
X032605Y011580D01*
X032765Y011205D02*
X033066Y011505D01*
X033066Y011580D01*
X033645Y011355D02*
X033945Y011355D01*
X033066Y011205D02*
X032765Y011205D01*
X034985Y010246D02*
X035135Y010096D01*
X035210Y009936D02*
X035285Y009861D01*
X035285Y009635D01*
X035435Y009635D02*
X034985Y009635D01*
X034985Y009861D01*
X035060Y009936D01*
X035210Y009936D01*
X035435Y010096D02*
X035435Y010396D01*
X035435Y010246D02*
X034985Y010246D01*
X034985Y009475D02*
X034985Y009325D01*
X034985Y009400D02*
X035360Y009400D01*
X035435Y009325D01*
X035435Y009250D01*
X035360Y009175D01*
X033795Y008305D02*
X033795Y007855D01*
X033645Y007855D02*
X033945Y007855D01*
X033645Y008155D02*
X033795Y008305D01*
X033484Y008230D02*
X033409Y008305D01*
X033259Y008305D01*
X033184Y008230D01*
X033184Y007930D01*
X033259Y007855D01*
X033409Y007855D01*
X033484Y007930D01*
X033066Y007705D02*
X032765Y007705D01*
X032916Y007705D02*
X032916Y008155D01*
X032765Y008005D01*
X032605Y008080D02*
X032605Y007780D01*
X032530Y007705D01*
X032305Y007705D01*
X032305Y008155D01*
X032530Y008155D01*
X032605Y008080D01*
D14*
X032530Y007180D03*
X032530Y010680D03*
X032530Y014180D03*
X032530Y017680D03*
D15*
X032155Y017680D03*
X034205Y017680D03*
X034205Y014180D03*
X032155Y014180D03*
X032155Y010680D03*
X034205Y010680D03*
X034205Y007180D03*
X032155Y007180D03*
D16*
X032550Y008930D02*
X032550Y009180D01*
X032550Y009430D01*
X032800Y009430D02*
X032800Y009180D01*
X032800Y008930D01*
X032800Y012430D02*
X032800Y012680D01*
X032800Y012930D01*
X032550Y012930D02*
X032550Y012680D01*
X032550Y012430D01*
X032550Y015930D02*
X032550Y016180D01*
X032550Y016430D01*
X032800Y016430D02*
X032800Y016180D01*
X032800Y015930D01*
X032800Y019430D02*
X032800Y019680D01*
X032800Y019930D01*
X032550Y019930D02*
X032550Y019680D01*
X032550Y019430D01*
D17*
X031083Y022779D02*
X031160Y022856D01*
X031160Y022933D01*
X031083Y023009D01*
X030700Y023009D01*
X030700Y022933D02*
X030700Y023086D01*
X030930Y023240D02*
X030930Y023547D01*
X031160Y023470D02*
X030700Y023470D01*
X030930Y023240D01*
X023660Y023316D02*
X023583Y023240D01*
X023660Y023316D02*
X023660Y023470D01*
X023583Y023547D01*
X023507Y023547D01*
X023430Y023470D01*
X023430Y023393D01*
X023430Y023470D02*
X023353Y023547D01*
X023276Y023547D01*
X023200Y023470D01*
X023200Y023316D01*
X023276Y023240D01*
X023200Y023086D02*
X023200Y022933D01*
X023200Y023009D02*
X023583Y023009D01*
X023660Y022933D01*
X023660Y022856D01*
X023583Y022779D01*
X016160Y022856D02*
X016160Y022933D01*
X016083Y023009D01*
X015700Y023009D01*
X015700Y022933D02*
X015700Y023086D01*
X015776Y023240D02*
X015700Y023316D01*
X015700Y023470D01*
X015776Y023547D01*
X015853Y023547D01*
X016160Y023240D01*
X016160Y023547D01*
X016160Y022856D02*
X016083Y022779D01*
X008660Y022856D02*
X008660Y022933D01*
X008583Y023009D01*
X008200Y023009D01*
X008200Y022933D02*
X008200Y023086D01*
X008353Y023240D02*
X008200Y023393D01*
X008660Y023393D01*
X008660Y023240D02*
X008660Y023547D01*
X008660Y022856D02*
X008583Y022779D01*
X004314Y006660D02*
X004314Y006200D01*
X004467Y006200D02*
X004160Y006200D01*
X003853Y006200D02*
X003853Y006660D01*
X003700Y006660D02*
X004007Y006660D01*
X004160Y006507D02*
X004314Y006660D01*
M02*
