G75*
G70*
%OFA0B0*%
%FSLAX24Y24*%
%IPPOS*%
%LPD*%
%AMOC8*
5,1,8,0,0,1.08239X$1,22.5*
%
%ADD10C,0.0827*%
%ADD11C,0.0554*%
%ADD12OC8,0.0554*%
%ADD13C,0.1266*%
%ADD14C,0.0650*%
%ADD15R,0.0945X0.0945*%
%ADD16C,0.0945*%
%ADD17C,0.0315*%
%ADD18C,0.1181*%
%ADD19C,0.0160*%
%ADD20C,0.1660*%
D10*
X003767Y009180D02*
X004593Y009180D01*
X006717Y009180D02*
X007543Y009180D01*
X011267Y009180D02*
X012093Y009180D01*
X014217Y009180D02*
X015043Y009180D01*
X018767Y009180D02*
X019593Y009180D01*
X021717Y009180D02*
X022543Y009180D01*
X026267Y009180D02*
X027093Y009180D01*
X029217Y009180D02*
X030043Y009180D01*
X030043Y015090D02*
X029217Y015090D01*
X027093Y015090D02*
X026267Y015090D01*
X026267Y017050D02*
X027093Y017050D01*
X029217Y017050D02*
X030043Y017050D01*
X030043Y019020D02*
X029217Y019020D01*
X027093Y019020D02*
X026267Y019020D01*
X022543Y019020D02*
X021717Y019020D01*
X019593Y019020D02*
X018767Y019020D01*
X018767Y017050D02*
X019593Y017050D01*
X021717Y017050D02*
X022543Y017050D01*
X022543Y015090D02*
X021717Y015090D01*
X019593Y015090D02*
X018767Y015090D01*
X015043Y015090D02*
X014217Y015090D01*
X012093Y015090D02*
X011267Y015090D01*
X011267Y017050D02*
X012093Y017050D01*
X014217Y017050D02*
X015043Y017050D01*
X015043Y019020D02*
X014217Y019020D01*
X012093Y019020D02*
X011267Y019020D01*
X007543Y019020D02*
X006717Y019020D01*
X004593Y019020D02*
X003767Y019020D01*
X003767Y017050D02*
X004593Y017050D01*
X006717Y017050D02*
X007543Y017050D01*
X007543Y015090D02*
X006717Y015090D01*
X004593Y015090D02*
X003767Y015090D01*
D11*
X031403Y014180D02*
X031957Y014180D01*
X034403Y014180D02*
X034957Y014180D01*
X034957Y017680D02*
X034403Y017680D01*
X031957Y017680D02*
X031403Y017680D01*
X031403Y010680D02*
X031957Y010680D01*
X034403Y010680D02*
X034957Y010680D01*
X034957Y007180D02*
X034403Y007180D01*
X031957Y007180D02*
X031403Y007180D01*
D12*
X031680Y009180D03*
X033680Y009180D03*
X033680Y012680D03*
X031680Y012680D03*
X031680Y016180D03*
X033680Y016180D03*
X033680Y019680D03*
X031680Y019680D03*
D13*
X016680Y005180D03*
X013680Y003680D03*
X019680Y003680D03*
D14*
X036180Y009680D03*
X036180Y010680D03*
X036180Y011680D03*
X036180Y012680D03*
X036180Y013680D03*
X036180Y014680D03*
D15*
X029180Y022680D03*
X021680Y022680D03*
X014180Y022680D03*
X006680Y022680D03*
D16*
X004680Y022680D03*
X012180Y022680D03*
X019680Y022680D03*
X027180Y022680D03*
D17*
X031680Y019680D02*
X031680Y019105D01*
X033421Y017364D01*
X033529Y017364D01*
X033845Y017680D01*
X034680Y017680D01*
X033421Y017364D02*
X033421Y017346D01*
X032255Y016180D01*
X031680Y016180D01*
X031680Y015253D01*
X030840Y014413D01*
X030840Y013946D01*
X031531Y013255D01*
X031680Y013255D01*
X031680Y012680D01*
X031680Y011255D02*
X033105Y012680D01*
X033680Y012680D01*
X034255Y012680D01*
X034255Y012605D01*
X036180Y010680D01*
X036180Y009680D02*
X034755Y009680D01*
X034255Y009180D01*
X033680Y009180D01*
X031680Y010680D02*
X014275Y010680D01*
X012775Y009180D01*
X011680Y009180D01*
X012822Y008467D02*
X013535Y009180D01*
X014630Y009180D01*
X015725Y009180D01*
X016431Y009886D01*
X020329Y009886D01*
X021035Y009180D01*
X022130Y009180D01*
X023225Y009180D01*
X023947Y008458D01*
X027813Y008458D01*
X028535Y009180D01*
X029630Y009180D01*
X031680Y010680D02*
X031680Y011255D01*
X033494Y013497D02*
X032811Y014180D01*
X031680Y014180D01*
X032811Y014180D02*
X032811Y014736D01*
X033680Y015605D01*
X033680Y016180D01*
X035515Y014180D02*
X036015Y014680D01*
X036180Y014680D01*
X035515Y014180D02*
X034680Y014180D01*
X034363Y013497D02*
X033494Y013497D01*
X034363Y013497D02*
X036180Y011680D01*
X031680Y007180D02*
X007275Y007180D01*
X005275Y009180D01*
X004180Y009180D01*
X007130Y009180D02*
X008225Y009180D01*
X008938Y008467D01*
X012822Y008467D01*
D18*
X011680Y015090D02*
X014630Y015090D01*
X014630Y017050D02*
X011680Y017050D01*
X011680Y019020D02*
X014630Y019020D01*
X019180Y019020D01*
X022130Y019020D01*
X026680Y019020D01*
X029630Y019020D01*
X029630Y017050D02*
X026680Y017050D01*
X026680Y015090D02*
X029630Y015090D01*
X026680Y015090D02*
X022130Y015090D01*
X019180Y015090D01*
X019180Y017050D02*
X022130Y017050D01*
X011680Y019020D02*
X007130Y019020D01*
X004180Y019020D01*
X004180Y017050D02*
X007130Y017050D01*
X007130Y015090D02*
X004180Y015090D01*
D19*
X000660Y023696D02*
X000660Y000660D01*
X001356Y000660D01*
X001137Y000880D01*
X000965Y001177D01*
X000876Y001508D01*
X000876Y001852D01*
X000965Y002183D01*
X001137Y002480D01*
X001380Y002723D01*
X001677Y002895D01*
X002008Y002984D01*
X002352Y002984D01*
X002683Y002895D01*
X002980Y002723D01*
X003223Y002480D01*
X003395Y002183D01*
X003484Y001852D01*
X003484Y001508D01*
X003395Y001177D01*
X003223Y000880D01*
X003004Y000660D01*
X035356Y000660D01*
X035137Y000880D01*
X034965Y001177D01*
X034876Y001508D01*
X034876Y001852D01*
X034965Y002183D01*
X035137Y002480D01*
X035380Y002723D01*
X035677Y002895D01*
X036008Y002984D01*
X036352Y002984D01*
X036683Y002895D01*
X036980Y002723D01*
X037223Y002480D01*
X037395Y002183D01*
X037484Y001852D01*
X037484Y001508D01*
X037395Y001177D01*
X037223Y000880D01*
X037004Y000660D01*
X037570Y000660D01*
X037570Y023696D01*
X037008Y023696D01*
X037223Y023480D01*
X037395Y023183D01*
X037484Y022852D01*
X037484Y022508D01*
X037395Y022177D01*
X037223Y021880D01*
X036980Y021637D01*
X036683Y021465D01*
X036352Y021376D01*
X036008Y021376D01*
X035677Y021465D01*
X035380Y021637D01*
X035137Y021880D01*
X034965Y022177D01*
X034876Y022508D01*
X034876Y022852D01*
X034965Y023183D01*
X035137Y023480D01*
X035352Y023696D01*
X003008Y023696D01*
X003223Y023480D01*
X003395Y023183D01*
X003484Y022852D01*
X003484Y022508D01*
X003395Y022177D01*
X003223Y021880D01*
X002980Y021637D01*
X002683Y021465D01*
X002352Y021376D01*
X002008Y021376D01*
X001677Y021465D01*
X001380Y021637D01*
X001137Y021880D01*
X000965Y022177D01*
X000876Y022508D01*
X000876Y022852D01*
X000965Y023183D01*
X001137Y023480D01*
X001352Y023696D01*
X000660Y023696D01*
X000660Y023638D02*
X001294Y023638D01*
X001136Y023480D02*
X000660Y023480D01*
X000660Y023321D02*
X001045Y023321D01*
X000960Y023163D02*
X000660Y023163D01*
X000660Y023004D02*
X000917Y023004D01*
X000876Y022846D02*
X000660Y022846D01*
X000660Y022687D02*
X000876Y022687D01*
X000876Y022529D02*
X000660Y022529D01*
X000660Y022370D02*
X000913Y022370D01*
X000956Y022212D02*
X000660Y022212D01*
X000660Y022053D02*
X001037Y022053D01*
X001128Y021895D02*
X000660Y021895D01*
X000660Y021736D02*
X001280Y021736D01*
X001482Y021578D02*
X000660Y021578D01*
X000660Y021419D02*
X001849Y021419D01*
X002511Y021419D02*
X035849Y021419D01*
X035482Y021578D02*
X002878Y021578D01*
X003080Y021736D02*
X004487Y021736D01*
X004492Y021734D02*
X004868Y021734D01*
X005216Y021878D01*
X005482Y022144D01*
X005626Y022492D01*
X005626Y022868D01*
X005482Y023216D01*
X005216Y023482D01*
X004868Y023626D01*
X004492Y023626D01*
X004144Y023482D01*
X003878Y023216D01*
X003734Y022868D01*
X003734Y022492D01*
X003878Y022144D01*
X004144Y021878D01*
X004492Y021734D01*
X004873Y021736D02*
X011987Y021736D01*
X011992Y021734D02*
X012368Y021734D01*
X012716Y021878D01*
X012982Y022144D01*
X013126Y022492D01*
X013126Y022868D01*
X012982Y023216D01*
X012716Y023482D01*
X012368Y023626D01*
X011992Y023626D01*
X011644Y023482D01*
X011378Y023216D01*
X011234Y022868D01*
X011234Y022492D01*
X011378Y022144D01*
X011644Y021878D01*
X011992Y021734D01*
X012373Y021736D02*
X019487Y021736D01*
X019492Y021734D02*
X019868Y021734D01*
X020216Y021878D01*
X020482Y022144D01*
X020626Y022492D01*
X020626Y022868D01*
X020482Y023216D01*
X020216Y023482D01*
X019868Y023626D01*
X019492Y023626D01*
X019144Y023482D01*
X018878Y023216D01*
X018734Y022868D01*
X018734Y022492D01*
X018878Y022144D01*
X019144Y021878D01*
X019492Y021734D01*
X019873Y021736D02*
X026987Y021736D01*
X026992Y021734D02*
X027368Y021734D01*
X027716Y021878D01*
X027982Y022144D01*
X028126Y022492D01*
X028126Y022868D01*
X027982Y023216D01*
X027716Y023482D01*
X027368Y023626D01*
X026992Y023626D01*
X026644Y023482D01*
X026378Y023216D01*
X026234Y022868D01*
X026234Y022492D01*
X026378Y022144D01*
X026644Y021878D01*
X026992Y021734D01*
X027373Y021736D02*
X035280Y021736D01*
X035128Y021895D02*
X027733Y021895D01*
X027891Y022053D02*
X035037Y022053D01*
X034956Y022212D02*
X028010Y022212D01*
X028076Y022370D02*
X034913Y022370D01*
X034876Y022529D02*
X028126Y022529D01*
X028126Y022687D02*
X034876Y022687D01*
X034876Y022846D02*
X028126Y022846D01*
X028070Y023004D02*
X034917Y023004D01*
X034960Y023163D02*
X028004Y023163D01*
X027877Y023321D02*
X035045Y023321D01*
X035136Y023480D02*
X027719Y023480D01*
X026641Y023480D02*
X020219Y023480D01*
X020377Y023321D02*
X026483Y023321D01*
X026356Y023163D02*
X020504Y023163D01*
X020570Y023004D02*
X026290Y023004D01*
X026234Y022846D02*
X020626Y022846D01*
X020626Y022687D02*
X026234Y022687D01*
X026234Y022529D02*
X020626Y022529D01*
X020576Y022370D02*
X026284Y022370D01*
X026350Y022212D02*
X020510Y022212D01*
X020391Y022053D02*
X026469Y022053D01*
X026627Y021895D02*
X020233Y021895D01*
X019127Y021895D02*
X012733Y021895D01*
X012891Y022053D02*
X018969Y022053D01*
X018850Y022212D02*
X013010Y022212D01*
X013076Y022370D02*
X018784Y022370D01*
X018734Y022529D02*
X013126Y022529D01*
X013126Y022687D02*
X018734Y022687D01*
X018734Y022846D02*
X013126Y022846D01*
X013070Y023004D02*
X018790Y023004D01*
X018856Y023163D02*
X013004Y023163D01*
X012877Y023321D02*
X018983Y023321D01*
X019141Y023480D02*
X012719Y023480D01*
X011641Y023480D02*
X005219Y023480D01*
X005377Y023321D02*
X011483Y023321D01*
X011356Y023163D02*
X005504Y023163D01*
X005570Y023004D02*
X011290Y023004D01*
X011234Y022846D02*
X005626Y022846D01*
X005626Y022687D02*
X011234Y022687D01*
X011234Y022529D02*
X005626Y022529D01*
X005576Y022370D02*
X011284Y022370D01*
X011350Y022212D02*
X005510Y022212D01*
X005391Y022053D02*
X011469Y022053D01*
X011627Y021895D02*
X005233Y021895D01*
X004127Y021895D02*
X003232Y021895D01*
X003323Y022053D02*
X003969Y022053D01*
X003850Y022212D02*
X003404Y022212D01*
X003447Y022370D02*
X003784Y022370D01*
X003734Y022529D02*
X003484Y022529D01*
X003484Y022687D02*
X003734Y022687D01*
X003734Y022846D02*
X003484Y022846D01*
X003443Y023004D02*
X003790Y023004D01*
X003856Y023163D02*
X003400Y023163D01*
X003315Y023321D02*
X003983Y023321D01*
X004141Y023480D02*
X003224Y023480D01*
X003066Y023638D02*
X035294Y023638D01*
X037066Y023638D02*
X037570Y023638D01*
X037570Y023480D02*
X037224Y023480D01*
X037315Y023321D02*
X037570Y023321D01*
X037570Y023163D02*
X037400Y023163D01*
X037443Y023004D02*
X037570Y023004D01*
X037570Y022846D02*
X037484Y022846D01*
X037484Y022687D02*
X037570Y022687D01*
X037570Y022529D02*
X037484Y022529D01*
X037447Y022370D02*
X037570Y022370D01*
X037570Y022212D02*
X037404Y022212D01*
X037323Y022053D02*
X037570Y022053D01*
X037570Y021895D02*
X037232Y021895D01*
X037080Y021736D02*
X037570Y021736D01*
X037570Y021578D02*
X036878Y021578D01*
X036511Y021419D02*
X037570Y021419D01*
X037570Y021261D02*
X000660Y021261D01*
X000660Y021102D02*
X037570Y021102D01*
X037570Y020944D02*
X000660Y020944D01*
X000660Y020785D02*
X037570Y020785D01*
X037570Y020627D02*
X000660Y020627D01*
X000660Y020468D02*
X037570Y020468D01*
X037570Y020310D02*
X034112Y020310D01*
X033991Y020431D02*
X033369Y020431D01*
X032929Y019991D01*
X032929Y019369D01*
X033369Y018929D01*
X033991Y018929D01*
X034431Y019369D01*
X034431Y019991D01*
X033991Y020431D01*
X034271Y020151D02*
X037570Y020151D01*
X037570Y019993D02*
X034429Y019993D01*
X034431Y019834D02*
X037570Y019834D01*
X037570Y019676D02*
X034431Y019676D01*
X034431Y019517D02*
X037570Y019517D01*
X037570Y019359D02*
X034420Y019359D01*
X034262Y019200D02*
X037570Y019200D01*
X037570Y019042D02*
X034103Y019042D01*
X033257Y019042D02*
X032636Y019042D01*
X032478Y019200D02*
X033098Y019200D01*
X032940Y019359D02*
X032420Y019359D01*
X032431Y019369D02*
X032431Y019991D01*
X031991Y020431D01*
X031369Y020431D01*
X030929Y019991D01*
X030929Y019369D01*
X031049Y019249D01*
X031049Y018979D01*
X031145Y018747D01*
X031322Y018570D01*
X031462Y018431D01*
X031253Y018431D01*
X030978Y018317D01*
X030766Y018105D01*
X030652Y017829D01*
X030652Y017696D01*
X030546Y017802D01*
X030228Y017934D01*
X030052Y018035D01*
X030228Y018136D01*
X030546Y018268D01*
X030795Y018518D01*
X030930Y018844D01*
X030930Y019196D01*
X030795Y019522D01*
X030546Y019772D01*
X030228Y019904D01*
X030041Y020012D01*
X029770Y020084D01*
X004040Y020084D01*
X003769Y020012D01*
X003582Y019904D01*
X003264Y019772D01*
X003015Y019522D01*
X002880Y019196D01*
X002880Y018844D01*
X003015Y018518D01*
X003264Y018268D01*
X003582Y018136D01*
X003758Y018035D01*
X003582Y017934D01*
X003264Y017802D01*
X003015Y017552D01*
X002880Y017226D01*
X002880Y016874D01*
X003015Y016548D01*
X003264Y016298D01*
X003582Y016166D01*
X003749Y016070D01*
X003582Y015974D01*
X003264Y015842D01*
X003015Y015592D01*
X002880Y015266D01*
X002880Y014914D01*
X003015Y014588D01*
X003264Y014338D01*
X003582Y014206D01*
X003769Y014098D01*
X004040Y014026D01*
X007270Y014026D01*
X007541Y014098D01*
X007728Y014206D01*
X008046Y014338D01*
X008295Y014588D01*
X008430Y014914D01*
X008430Y015266D01*
X008295Y015592D01*
X008046Y015842D01*
X007728Y015974D01*
X007561Y016070D01*
X007728Y016166D01*
X008046Y016298D01*
X008295Y016548D01*
X008430Y016874D01*
X008430Y017226D01*
X008295Y017552D01*
X008046Y017802D01*
X007728Y017934D01*
X007690Y017956D01*
X011120Y017956D01*
X011082Y017934D01*
X010764Y017802D01*
X010515Y017552D01*
X010380Y017226D01*
X010380Y016874D01*
X010515Y016548D01*
X010764Y016298D01*
X011082Y016166D01*
X011249Y016070D01*
X011082Y015974D01*
X010764Y015842D01*
X010515Y015592D01*
X010380Y015266D01*
X010380Y014914D01*
X010515Y014588D01*
X010764Y014338D01*
X011082Y014206D01*
X011269Y014098D01*
X011540Y014026D01*
X014770Y014026D01*
X015041Y014098D01*
X015228Y014206D01*
X015546Y014338D01*
X015795Y014588D01*
X015930Y014914D01*
X015930Y015266D01*
X015795Y015592D01*
X015546Y015842D01*
X015228Y015974D01*
X015061Y016070D01*
X015228Y016166D01*
X015546Y016298D01*
X015795Y016548D01*
X015930Y016874D01*
X015930Y017226D01*
X015795Y017552D01*
X015546Y017802D01*
X015228Y017934D01*
X015190Y017956D01*
X018620Y017956D01*
X018582Y017934D01*
X018264Y017802D01*
X018015Y017552D01*
X017880Y017226D01*
X017880Y016874D01*
X018015Y016548D01*
X018264Y016298D01*
X018582Y016166D01*
X018749Y016070D01*
X018582Y015974D01*
X018264Y015842D01*
X018015Y015592D01*
X017880Y015266D01*
X017880Y014914D01*
X018015Y014588D01*
X018264Y014338D01*
X018582Y014206D01*
X018769Y014098D01*
X019040Y014026D01*
X029770Y014026D01*
X030041Y014098D01*
X030209Y014195D01*
X030209Y013821D01*
X030305Y013589D01*
X030929Y012964D01*
X030929Y012369D01*
X031369Y011929D01*
X031462Y011929D01*
X031145Y011613D01*
X031049Y011381D01*
X031049Y011346D01*
X030978Y011317D01*
X030972Y011311D01*
X014149Y011311D01*
X013917Y011215D01*
X013740Y011038D01*
X012615Y009913D01*
X012596Y009932D01*
X012270Y010067D01*
X011090Y010067D01*
X010764Y009932D01*
X010515Y009682D01*
X010380Y009356D01*
X010380Y009099D01*
X009199Y009099D01*
X008583Y009715D01*
X008351Y009811D01*
X008167Y009811D01*
X008046Y009932D01*
X007720Y010067D01*
X006540Y010067D01*
X006214Y009932D01*
X005965Y009682D01*
X005877Y009471D01*
X005633Y009715D01*
X005401Y009811D01*
X005217Y009811D01*
X005096Y009932D01*
X004770Y010067D01*
X003590Y010067D01*
X003264Y009932D01*
X003015Y009682D01*
X002880Y009356D01*
X002880Y009004D01*
X003015Y008678D01*
X003264Y008428D01*
X003590Y008293D01*
X004770Y008293D01*
X005096Y008428D01*
X005115Y008447D01*
X006740Y006822D01*
X006917Y006645D01*
X007149Y006549D01*
X030972Y006549D01*
X030978Y006543D01*
X031253Y006429D01*
X032107Y006429D01*
X032382Y006543D01*
X032594Y006755D01*
X032708Y007031D01*
X032708Y007329D01*
X032594Y007605D01*
X032382Y007817D01*
X032107Y007931D01*
X031253Y007931D01*
X030978Y007817D01*
X030972Y007811D01*
X007536Y007811D01*
X007055Y008293D01*
X007720Y008293D01*
X008046Y008428D01*
X008065Y008447D01*
X008403Y008110D01*
X008580Y007932D01*
X008812Y007836D01*
X012948Y007836D01*
X013180Y007932D01*
X013695Y008447D01*
X013714Y008428D01*
X014040Y008293D01*
X015220Y008293D01*
X015546Y008428D01*
X015667Y008549D01*
X015851Y008549D01*
X016083Y008645D01*
X016693Y009255D01*
X017880Y009255D01*
X017880Y009004D01*
X018015Y008678D01*
X018264Y008428D01*
X018590Y008293D01*
X019770Y008293D01*
X020096Y008428D01*
X020345Y008678D01*
X020433Y008889D01*
X020677Y008645D01*
X020909Y008549D01*
X021093Y008549D01*
X021214Y008428D01*
X021540Y008293D01*
X022720Y008293D01*
X023046Y008428D01*
X023065Y008447D01*
X023589Y007923D01*
X023821Y007827D01*
X027939Y007827D01*
X028171Y007923D01*
X028348Y008101D01*
X028695Y008447D01*
X028714Y008428D01*
X029040Y008293D01*
X030220Y008293D01*
X030546Y008428D01*
X030795Y008678D01*
X030929Y009000D01*
X030929Y008869D01*
X031369Y008429D01*
X031991Y008429D01*
X032431Y008869D01*
X032431Y009491D01*
X031993Y009929D01*
X032107Y009929D01*
X032382Y010043D01*
X032594Y010255D01*
X032708Y010531D01*
X032708Y010829D01*
X032594Y011105D01*
X032508Y011191D01*
X033308Y011990D01*
X033369Y011929D01*
X033991Y011929D01*
X034015Y011953D01*
X034537Y011431D01*
X034253Y011431D01*
X033978Y011317D01*
X033766Y011105D01*
X033652Y010829D01*
X033652Y010531D01*
X033766Y010255D01*
X033978Y010043D01*
X034153Y009971D01*
X034052Y009870D01*
X033991Y009931D01*
X033369Y009931D01*
X032929Y009491D01*
X032929Y008869D01*
X033369Y008429D01*
X033991Y008429D01*
X034111Y008549D01*
X034381Y008549D01*
X034613Y008645D01*
X035016Y009049D01*
X035682Y009049D01*
X035728Y009003D01*
X036021Y008881D01*
X036339Y008881D01*
X036632Y009003D01*
X036857Y009228D01*
X036979Y009521D01*
X036979Y009839D01*
X036857Y010132D01*
X036809Y010180D01*
X036857Y010228D01*
X036979Y010521D01*
X036979Y010839D01*
X036857Y011132D01*
X036809Y011180D01*
X036857Y011228D01*
X036979Y011521D01*
X036979Y011839D01*
X036857Y012132D01*
X036809Y012180D01*
X036857Y012228D01*
X036979Y012521D01*
X036979Y012839D01*
X036857Y013132D01*
X036809Y013180D01*
X036857Y013228D01*
X036979Y013521D01*
X036979Y013839D01*
X036857Y014132D01*
X036809Y014180D01*
X036857Y014228D01*
X036979Y014521D01*
X036979Y014839D01*
X036857Y015132D01*
X036632Y015357D01*
X036339Y015479D01*
X036021Y015479D01*
X035728Y015357D01*
X035503Y015132D01*
X035452Y015010D01*
X035295Y014853D01*
X035107Y014931D01*
X034253Y014931D01*
X033978Y014817D01*
X033766Y014605D01*
X033652Y014329D01*
X033652Y014231D01*
X033442Y014441D01*
X033442Y014474D01*
X034038Y015070D01*
X034215Y015247D01*
X034311Y015479D01*
X034311Y015749D01*
X034431Y015869D01*
X034431Y016491D01*
X033991Y016931D01*
X033988Y016931D01*
X034065Y017007D01*
X034253Y016929D01*
X035107Y016929D01*
X035382Y017043D01*
X035594Y017255D01*
X035708Y017531D01*
X035708Y017829D01*
X035594Y018105D01*
X035382Y018317D01*
X035107Y018431D01*
X034253Y018431D01*
X033978Y018317D01*
X033972Y018311D01*
X033719Y018311D01*
X033487Y018215D01*
X033475Y018203D01*
X032370Y019308D01*
X032431Y019369D01*
X032431Y019517D02*
X032929Y019517D01*
X032929Y019676D02*
X032431Y019676D01*
X032431Y019834D02*
X032929Y019834D01*
X032931Y019993D02*
X032429Y019993D01*
X032271Y020151D02*
X033089Y020151D01*
X033248Y020310D02*
X032112Y020310D01*
X031248Y020310D02*
X000660Y020310D01*
X000660Y020151D02*
X031089Y020151D01*
X030931Y019993D02*
X030074Y019993D01*
X030396Y019834D02*
X030929Y019834D01*
X030929Y019676D02*
X030642Y019676D01*
X030798Y019517D02*
X030929Y019517D01*
X030940Y019359D02*
X030863Y019359D01*
X030929Y019200D02*
X031049Y019200D01*
X031049Y019042D02*
X030930Y019042D01*
X030930Y018883D02*
X031089Y018883D01*
X031168Y018725D02*
X030881Y018725D01*
X030816Y018566D02*
X031326Y018566D01*
X031197Y018408D02*
X030685Y018408D01*
X030500Y018249D02*
X030910Y018249D01*
X030760Y018091D02*
X030149Y018091D01*
X030232Y017932D02*
X030694Y017932D01*
X030652Y017774D02*
X030574Y017774D01*
X032795Y018883D02*
X037570Y018883D01*
X037570Y018725D02*
X032953Y018725D01*
X033112Y018566D02*
X037570Y018566D01*
X037570Y018408D02*
X035163Y018408D01*
X035450Y018249D02*
X037570Y018249D01*
X037570Y018091D02*
X035600Y018091D01*
X035666Y017932D02*
X037570Y017932D01*
X037570Y017774D02*
X035708Y017774D01*
X035708Y017615D02*
X037570Y017615D01*
X037570Y017457D02*
X035677Y017457D01*
X035612Y017298D02*
X037570Y017298D01*
X037570Y017140D02*
X035479Y017140D01*
X035232Y016981D02*
X037570Y016981D01*
X037570Y016823D02*
X034099Y016823D01*
X034128Y016981D02*
X034039Y016981D01*
X034258Y016664D02*
X037570Y016664D01*
X037570Y016506D02*
X034416Y016506D01*
X034431Y016347D02*
X037570Y016347D01*
X037570Y016189D02*
X034431Y016189D01*
X034431Y016030D02*
X037570Y016030D01*
X037570Y015872D02*
X034431Y015872D01*
X034311Y015713D02*
X037570Y015713D01*
X037570Y015555D02*
X034311Y015555D01*
X034277Y015396D02*
X035822Y015396D01*
X035608Y015238D02*
X034205Y015238D01*
X034047Y015079D02*
X035481Y015079D01*
X035363Y014921D02*
X035131Y014921D01*
X034229Y014921D02*
X033888Y014921D01*
X033923Y014762D02*
X033730Y014762D01*
X033766Y014604D02*
X033571Y014604D01*
X033442Y014445D02*
X033700Y014445D01*
X033652Y014287D02*
X033597Y014287D01*
X034038Y015070D02*
X034038Y015070D01*
X036538Y015396D02*
X037570Y015396D01*
X037570Y015238D02*
X036752Y015238D01*
X036879Y015079D02*
X037570Y015079D01*
X037570Y014921D02*
X036945Y014921D01*
X036979Y014762D02*
X037570Y014762D01*
X037570Y014604D02*
X036979Y014604D01*
X036947Y014445D02*
X037570Y014445D01*
X037570Y014287D02*
X036881Y014287D01*
X036859Y014128D02*
X037570Y014128D01*
X037570Y013970D02*
X036924Y013970D01*
X036979Y013811D02*
X037570Y013811D01*
X037570Y013653D02*
X036979Y013653D01*
X036967Y013494D02*
X037570Y013494D01*
X037570Y013336D02*
X036902Y013336D01*
X036812Y013177D02*
X037570Y013177D01*
X037570Y013019D02*
X036904Y013019D01*
X036970Y012860D02*
X037570Y012860D01*
X037570Y012702D02*
X036979Y012702D01*
X036979Y012543D02*
X037570Y012543D01*
X037570Y012385D02*
X036922Y012385D01*
X036855Y012226D02*
X037570Y012226D01*
X037570Y012068D02*
X036884Y012068D01*
X036949Y011909D02*
X037570Y011909D01*
X037570Y011751D02*
X036979Y011751D01*
X036979Y011592D02*
X037570Y011592D01*
X037570Y011434D02*
X036942Y011434D01*
X036877Y011275D02*
X037570Y011275D01*
X037570Y011117D02*
X036863Y011117D01*
X036929Y010958D02*
X037570Y010958D01*
X037570Y010800D02*
X036979Y010800D01*
X036979Y010641D02*
X037570Y010641D01*
X037570Y010483D02*
X036962Y010483D01*
X036897Y010324D02*
X037570Y010324D01*
X037570Y010166D02*
X036824Y010166D01*
X036909Y010007D02*
X037570Y010007D01*
X037570Y009849D02*
X036974Y009849D01*
X036979Y009690D02*
X037570Y009690D01*
X037570Y009532D02*
X036979Y009532D01*
X036917Y009373D02*
X037570Y009373D01*
X037570Y009215D02*
X036844Y009215D01*
X036685Y009056D02*
X037570Y009056D01*
X037570Y008898D02*
X036378Y008898D01*
X035982Y008898D02*
X034865Y008898D01*
X034707Y008739D02*
X037570Y008739D01*
X037570Y008581D02*
X034457Y008581D01*
X034253Y007931D02*
X033978Y007817D01*
X033766Y007605D01*
X033652Y007329D01*
X033652Y007031D01*
X033766Y006755D01*
X033978Y006543D01*
X034253Y006429D01*
X035107Y006429D01*
X035382Y006543D01*
X035594Y006755D01*
X035708Y007031D01*
X035708Y007329D01*
X035594Y007605D01*
X035382Y007817D01*
X035107Y007931D01*
X034253Y007931D01*
X033949Y007788D02*
X032411Y007788D01*
X032570Y007630D02*
X033790Y007630D01*
X033711Y007471D02*
X032649Y007471D01*
X032708Y007313D02*
X033652Y007313D01*
X033652Y007154D02*
X032708Y007154D01*
X032693Y006996D02*
X033667Y006996D01*
X033732Y006837D02*
X032628Y006837D01*
X032518Y006679D02*
X033842Y006679D01*
X034034Y006520D02*
X032326Y006520D01*
X031034Y006520D02*
X000660Y006520D01*
X000660Y006362D02*
X037570Y006362D01*
X037570Y006520D02*
X035326Y006520D01*
X035518Y006679D02*
X037570Y006679D01*
X037570Y006837D02*
X035628Y006837D01*
X035693Y006996D02*
X037570Y006996D01*
X037570Y007154D02*
X035708Y007154D01*
X035708Y007313D02*
X037570Y007313D01*
X037570Y007471D02*
X035649Y007471D01*
X035570Y007630D02*
X037570Y007630D01*
X037570Y007788D02*
X035411Y007788D01*
X037570Y007947D02*
X028194Y007947D01*
X028353Y008105D02*
X037570Y008105D01*
X037570Y008264D02*
X028511Y008264D01*
X028670Y008422D02*
X028728Y008422D01*
X030532Y008422D02*
X037570Y008422D01*
X037570Y006203D02*
X017122Y006203D01*
X017107Y006211D02*
X016826Y006287D01*
X016534Y006287D01*
X016253Y006211D01*
X016000Y006066D01*
X015794Y005860D01*
X015649Y005607D01*
X015573Y005326D01*
X015573Y005034D01*
X015649Y004753D01*
X015794Y004500D01*
X016000Y004294D01*
X016253Y004149D01*
X016534Y004073D01*
X016826Y004073D01*
X017107Y004149D01*
X017360Y004294D01*
X017566Y004500D01*
X017711Y004753D01*
X017787Y005034D01*
X017787Y005326D01*
X017711Y005607D01*
X017566Y005860D01*
X017360Y006066D01*
X017107Y006211D01*
X017381Y006045D02*
X037570Y006045D01*
X037570Y005886D02*
X017539Y005886D01*
X017642Y005728D02*
X037570Y005728D01*
X037570Y005569D02*
X017722Y005569D01*
X017764Y005411D02*
X037570Y005411D01*
X037570Y005252D02*
X017787Y005252D01*
X017787Y005094D02*
X037570Y005094D01*
X037570Y004935D02*
X017760Y004935D01*
X017718Y004777D02*
X037570Y004777D01*
X037570Y004618D02*
X017634Y004618D01*
X017525Y004460D02*
X037570Y004460D01*
X037570Y004301D02*
X017366Y004301D01*
X017084Y004143D02*
X037570Y004143D01*
X037570Y003984D02*
X014744Y003984D01*
X014711Y004107D02*
X014566Y004360D01*
X014360Y004566D01*
X014107Y004711D01*
X013826Y004787D01*
X013534Y004787D01*
X013253Y004711D01*
X013000Y004566D01*
X012794Y004360D01*
X012649Y004107D01*
X012573Y003826D01*
X012573Y003534D01*
X012649Y003253D01*
X012794Y003000D01*
X013000Y002794D01*
X013253Y002649D01*
X013534Y002573D01*
X013826Y002573D01*
X014107Y002649D01*
X014360Y002794D01*
X014566Y003000D01*
X014711Y003253D01*
X014787Y003534D01*
X014787Y003826D01*
X014711Y004107D01*
X014691Y004143D02*
X016276Y004143D01*
X015994Y004301D02*
X014599Y004301D01*
X014466Y004460D02*
X015835Y004460D01*
X015726Y004618D02*
X014269Y004618D01*
X013864Y004777D02*
X015642Y004777D01*
X015600Y004935D02*
X000660Y004935D01*
X000660Y004777D02*
X013496Y004777D01*
X013091Y004618D02*
X000660Y004618D01*
X000660Y004460D02*
X012894Y004460D01*
X012761Y004301D02*
X000660Y004301D01*
X000660Y004143D02*
X012669Y004143D01*
X012616Y003984D02*
X000660Y003984D01*
X000660Y003826D02*
X012573Y003826D01*
X012573Y003667D02*
X000660Y003667D01*
X000660Y003509D02*
X012580Y003509D01*
X012623Y003350D02*
X000660Y003350D01*
X000660Y003192D02*
X012684Y003192D01*
X012776Y003033D02*
X000660Y003033D01*
X000660Y002875D02*
X001642Y002875D01*
X001372Y002716D02*
X000660Y002716D01*
X000660Y002558D02*
X001214Y002558D01*
X001090Y002399D02*
X000660Y002399D01*
X000660Y002241D02*
X000998Y002241D01*
X000938Y002082D02*
X000660Y002082D01*
X000660Y001924D02*
X000896Y001924D01*
X000876Y001765D02*
X000660Y001765D01*
X000660Y001607D02*
X000876Y001607D01*
X000893Y001448D02*
X000660Y001448D01*
X000660Y001290D02*
X000935Y001290D01*
X000992Y001131D02*
X000660Y001131D01*
X000660Y000973D02*
X001083Y000973D01*
X001202Y000814D02*
X000660Y000814D01*
X003158Y000814D02*
X035202Y000814D01*
X035083Y000973D02*
X003277Y000973D01*
X003368Y001131D02*
X034992Y001131D01*
X034935Y001290D02*
X003425Y001290D01*
X003467Y001448D02*
X034893Y001448D01*
X034876Y001607D02*
X003484Y001607D01*
X003484Y001765D02*
X034876Y001765D01*
X034896Y001924D02*
X003464Y001924D01*
X003422Y002082D02*
X034938Y002082D01*
X034998Y002241D02*
X003362Y002241D01*
X003270Y002399D02*
X035090Y002399D01*
X035214Y002558D02*
X003146Y002558D01*
X002988Y002716D02*
X013136Y002716D01*
X012920Y002875D02*
X002718Y002875D01*
X000660Y005094D02*
X015573Y005094D01*
X015573Y005252D02*
X000660Y005252D01*
X000660Y005411D02*
X015596Y005411D01*
X015638Y005569D02*
X000660Y005569D01*
X000660Y005728D02*
X015718Y005728D01*
X015821Y005886D02*
X000660Y005886D01*
X000660Y006045D02*
X015979Y006045D01*
X016238Y006203D02*
X000660Y006203D01*
X000660Y006679D02*
X006884Y006679D01*
X006725Y006837D02*
X000660Y006837D01*
X000660Y006996D02*
X006567Y006996D01*
X006408Y007154D02*
X000660Y007154D01*
X000660Y007313D02*
X006250Y007313D01*
X006091Y007471D02*
X000660Y007471D01*
X000660Y007630D02*
X005933Y007630D01*
X005774Y007788D02*
X000660Y007788D01*
X000660Y007947D02*
X005616Y007947D01*
X005457Y008105D02*
X000660Y008105D01*
X000660Y008264D02*
X005299Y008264D01*
X005140Y008422D02*
X005082Y008422D01*
X005816Y009532D02*
X005902Y009532D01*
X005972Y009690D02*
X005658Y009690D01*
X006131Y009849D02*
X005179Y009849D01*
X004915Y010007D02*
X006395Y010007D01*
X007865Y010007D02*
X010945Y010007D01*
X010681Y009849D02*
X008129Y009849D01*
X008608Y009690D02*
X010522Y009690D01*
X010452Y009532D02*
X008766Y009532D01*
X008925Y009373D02*
X010386Y009373D01*
X010380Y009215D02*
X009083Y009215D01*
X008090Y008422D02*
X008032Y008422D01*
X008249Y008264D02*
X007084Y008264D01*
X007243Y008105D02*
X008407Y008105D01*
X008566Y007947D02*
X007401Y007947D01*
X003278Y008422D02*
X000660Y008422D01*
X000660Y008581D02*
X003112Y008581D01*
X002989Y008739D02*
X000660Y008739D01*
X000660Y008898D02*
X002923Y008898D01*
X002880Y009056D02*
X000660Y009056D01*
X000660Y009215D02*
X002880Y009215D01*
X002886Y009373D02*
X000660Y009373D01*
X000660Y009532D02*
X002952Y009532D01*
X003022Y009690D02*
X000660Y009690D01*
X000660Y009849D02*
X003181Y009849D01*
X003445Y010007D02*
X000660Y010007D01*
X000660Y010166D02*
X012868Y010166D01*
X013026Y010324D02*
X000660Y010324D01*
X000660Y010483D02*
X013185Y010483D01*
X013343Y010641D02*
X000660Y010641D01*
X000660Y010800D02*
X013502Y010800D01*
X013660Y010958D02*
X000660Y010958D01*
X000660Y011117D02*
X013819Y011117D01*
X014062Y011275D02*
X000660Y011275D01*
X000660Y011434D02*
X031071Y011434D01*
X031136Y011592D02*
X000660Y011592D01*
X000660Y011751D02*
X031283Y011751D01*
X031441Y011909D02*
X000660Y011909D01*
X000660Y012068D02*
X031231Y012068D01*
X031072Y012226D02*
X000660Y012226D01*
X000660Y012385D02*
X030929Y012385D01*
X030929Y012543D02*
X000660Y012543D01*
X000660Y012702D02*
X030929Y012702D01*
X030929Y012860D02*
X000660Y012860D01*
X000660Y013019D02*
X030875Y013019D01*
X030716Y013177D02*
X000660Y013177D01*
X000660Y013336D02*
X030558Y013336D01*
X030399Y013494D02*
X000660Y013494D01*
X000660Y013653D02*
X030278Y013653D01*
X030213Y013811D02*
X000660Y013811D01*
X000660Y013970D02*
X030209Y013970D01*
X030209Y014128D02*
X030092Y014128D01*
X033068Y011751D02*
X034217Y011751D01*
X034058Y011909D02*
X033227Y011909D01*
X032910Y011592D02*
X034375Y011592D01*
X034534Y011434D02*
X032751Y011434D01*
X032593Y011275D02*
X033936Y011275D01*
X033777Y011117D02*
X032583Y011117D01*
X032655Y010958D02*
X033705Y010958D01*
X033652Y010800D02*
X032708Y010800D01*
X032708Y010641D02*
X033652Y010641D01*
X033672Y010483D02*
X032688Y010483D01*
X032622Y010324D02*
X033738Y010324D01*
X033855Y010166D02*
X032505Y010166D01*
X032295Y010007D02*
X034065Y010007D01*
X033287Y009849D02*
X032073Y009849D01*
X032232Y009690D02*
X033128Y009690D01*
X032970Y009532D02*
X032390Y009532D01*
X032431Y009373D02*
X032929Y009373D01*
X032929Y009215D02*
X032431Y009215D01*
X032431Y009056D02*
X032929Y009056D01*
X032929Y008898D02*
X032431Y008898D01*
X032301Y008739D02*
X033059Y008739D01*
X033218Y008581D02*
X032142Y008581D01*
X031218Y008581D02*
X030698Y008581D01*
X030821Y008739D02*
X031059Y008739D01*
X030929Y008898D02*
X030887Y008898D01*
X023566Y007947D02*
X013194Y007947D01*
X013353Y008105D02*
X023407Y008105D01*
X023249Y008264D02*
X013511Y008264D01*
X013670Y008422D02*
X013728Y008422D01*
X015532Y008422D02*
X018278Y008422D01*
X018112Y008581D02*
X015927Y008581D01*
X016177Y008739D02*
X017989Y008739D01*
X017923Y008898D02*
X016335Y008898D01*
X016494Y009056D02*
X017880Y009056D01*
X017880Y009215D02*
X016652Y009215D01*
X020082Y008422D02*
X021228Y008422D01*
X020833Y008581D02*
X020248Y008581D01*
X020371Y008739D02*
X020583Y008739D01*
X023032Y008422D02*
X023090Y008422D01*
X014787Y003826D02*
X037570Y003826D01*
X037570Y003667D02*
X014787Y003667D01*
X014780Y003509D02*
X037570Y003509D01*
X037570Y003350D02*
X014737Y003350D01*
X014676Y003192D02*
X037570Y003192D01*
X037570Y003033D02*
X014584Y003033D01*
X014440Y002875D02*
X035642Y002875D01*
X035372Y002716D02*
X014224Y002716D01*
X012709Y010007D02*
X012415Y010007D01*
X011218Y014128D02*
X007592Y014128D01*
X007922Y014287D02*
X010888Y014287D01*
X010657Y014445D02*
X008153Y014445D01*
X008302Y014604D02*
X010508Y014604D01*
X010442Y014762D02*
X008368Y014762D01*
X008430Y014921D02*
X010380Y014921D01*
X010380Y015079D02*
X008430Y015079D01*
X008430Y015238D02*
X010380Y015238D01*
X010433Y015396D02*
X008377Y015396D01*
X008311Y015555D02*
X010499Y015555D01*
X010635Y015713D02*
X008175Y015713D01*
X007975Y015872D02*
X010835Y015872D01*
X011028Y016189D02*
X007782Y016189D01*
X007630Y016030D02*
X011180Y016030D01*
X010715Y016347D02*
X008095Y016347D01*
X008253Y016506D02*
X010557Y016506D01*
X010466Y016664D02*
X008344Y016664D01*
X008409Y016823D02*
X010401Y016823D01*
X010380Y016981D02*
X008430Y016981D01*
X008430Y017140D02*
X010380Y017140D01*
X010409Y017298D02*
X008401Y017298D01*
X008335Y017457D02*
X010475Y017457D01*
X010577Y017615D02*
X008233Y017615D01*
X008074Y017774D02*
X010736Y017774D01*
X011078Y017932D02*
X007732Y017932D01*
X003661Y018091D02*
X000660Y018091D01*
X000660Y018249D02*
X003310Y018249D01*
X003125Y018408D02*
X000660Y018408D01*
X000660Y018566D02*
X002994Y018566D01*
X002929Y018725D02*
X000660Y018725D01*
X000660Y018883D02*
X002880Y018883D01*
X002880Y019042D02*
X000660Y019042D01*
X000660Y019200D02*
X002881Y019200D01*
X002947Y019359D02*
X000660Y019359D01*
X000660Y019517D02*
X003012Y019517D01*
X003168Y019676D02*
X000660Y019676D01*
X000660Y019834D02*
X003414Y019834D01*
X003736Y019993D02*
X000660Y019993D01*
X000660Y017932D02*
X003578Y017932D01*
X003236Y017774D02*
X000660Y017774D01*
X000660Y017615D02*
X003077Y017615D01*
X002975Y017457D02*
X000660Y017457D01*
X000660Y017298D02*
X002909Y017298D01*
X002880Y017140D02*
X000660Y017140D01*
X000660Y016981D02*
X002880Y016981D01*
X002901Y016823D02*
X000660Y016823D01*
X000660Y016664D02*
X002966Y016664D01*
X003057Y016506D02*
X000660Y016506D01*
X000660Y016347D02*
X003215Y016347D01*
X003528Y016189D02*
X000660Y016189D01*
X000660Y016030D02*
X003680Y016030D01*
X003335Y015872D02*
X000660Y015872D01*
X000660Y015713D02*
X003135Y015713D01*
X002999Y015555D02*
X000660Y015555D01*
X000660Y015396D02*
X002933Y015396D01*
X002880Y015238D02*
X000660Y015238D01*
X000660Y015079D02*
X002880Y015079D01*
X002880Y014921D02*
X000660Y014921D01*
X000660Y014762D02*
X002942Y014762D01*
X003008Y014604D02*
X000660Y014604D01*
X000660Y014445D02*
X003157Y014445D01*
X003388Y014287D02*
X000660Y014287D01*
X000660Y014128D02*
X003718Y014128D01*
X015092Y014128D02*
X018718Y014128D01*
X018388Y014287D02*
X015422Y014287D01*
X015653Y014445D02*
X018157Y014445D01*
X018008Y014604D02*
X015802Y014604D01*
X015868Y014762D02*
X017942Y014762D01*
X017880Y014921D02*
X015930Y014921D01*
X015930Y015079D02*
X017880Y015079D01*
X017880Y015238D02*
X015930Y015238D01*
X015877Y015396D02*
X017933Y015396D01*
X017999Y015555D02*
X015811Y015555D01*
X015675Y015713D02*
X018135Y015713D01*
X018335Y015872D02*
X015475Y015872D01*
X015282Y016189D02*
X018528Y016189D01*
X018680Y016030D02*
X015130Y016030D01*
X015595Y016347D02*
X018215Y016347D01*
X018057Y016506D02*
X015753Y016506D01*
X015844Y016664D02*
X017966Y016664D01*
X017901Y016823D02*
X015909Y016823D01*
X015930Y016981D02*
X017880Y016981D01*
X017880Y017140D02*
X015930Y017140D01*
X015901Y017298D02*
X017909Y017298D01*
X017975Y017457D02*
X015835Y017457D01*
X015733Y017615D02*
X018077Y017615D01*
X018236Y017774D02*
X015574Y017774D01*
X015232Y017932D02*
X018578Y017932D01*
X033270Y018408D02*
X034197Y018408D01*
X033569Y018249D02*
X033429Y018249D01*
X036718Y002875D02*
X037570Y002875D01*
X037570Y002716D02*
X036988Y002716D01*
X037146Y002558D02*
X037570Y002558D01*
X037570Y002399D02*
X037270Y002399D01*
X037362Y002241D02*
X037570Y002241D01*
X037570Y002082D02*
X037422Y002082D01*
X037464Y001924D02*
X037570Y001924D01*
X037570Y001765D02*
X037484Y001765D01*
X037484Y001607D02*
X037570Y001607D01*
X037570Y001448D02*
X037467Y001448D01*
X037425Y001290D02*
X037570Y001290D01*
X037570Y001131D02*
X037368Y001131D01*
X037277Y000973D02*
X037570Y000973D01*
X037570Y000814D02*
X037158Y000814D01*
D20*
X036180Y001680D03*
X036180Y022680D03*
X002180Y022680D03*
X002180Y001680D03*
M02*
